<svg width="1253" height="360" viewBox="0 0 1253 360" fill="none" xmlns="http://www.w3.org/2000/svg">
<path fill-rule="evenodd" clip-rule="evenodd" d="M178.92 0C270.57 0 344.86 78.49 344.86 175.31C344.86 193.92 342.1 211.85 337.02 228.68C340.1 215.47 341.74 201.68 341.74 187.5C341.74 136.61 317.78 87.85 281.77 55.83C249.26 26.92 206.38 12.19 172.22 12.19C100.21 12.19 75.15 33.63 43.2 68.76C71.5 23.64 124.25 0 178.92 0Z" fill="#2E2F66"/>
<path fill-rule="evenodd" clip-rule="evenodd" d="M321.07 261.08C293.08 319.31 235.78 359.23 169.63 359.23C77.28 359.23 2.17 281.44 0 184.62C11 274.78 84.71 344.47 173.99 344.47C235.6 344.47 289.78 311.28 321.07 261.08Z" fill="#2E2F66"/>
<path fill-rule="evenodd" clip-rule="evenodd" d="M160.78 23.4099C169.43 23.4099 177.91 24.1899 186.16 25.6599C183.83 25.5499 181.5 25.4899 179.15 25.4899C93.16 25.4899 23.45 96.3799 23.45 183.83C23.45 233.49 45.93 277.8 81.11 306.83C39.88 279.52 12.54 231.65 12.54 177.15C12.54 92.2299 78.91 23.3999 160.78 23.3999" fill="#2E2F66"/>
<path fill-rule="evenodd" clip-rule="evenodd" d="M225.44 33.21C285.24 53.06 328.55 111.29 328.55 180.05C328.55 264.5 263.22 333.07 182.24 334.15C257.61 323.08 315.53 257 315.53 177.13C315.53 113.39 278.64 58.44 225.44 33.21Z" fill="#2E2F66"/>
<path fill-rule="evenodd" clip-rule="evenodd" d="M80.8 145.86H192.33C199.71 145.83 210.15 145.2 214.29 146.73C216.17 147.43 219.14 150.46 219.88 154.45C220.81 159.48 218.74 165.65 212.77 166.35C185.96 169.52 105.07 166.4 80.8 166.4V255.09H209.06C284.41 255.09 270.98 186.66 243.1 179.84C260.52 166.23 266.8 142.51 250.9 124.69C240.81 113.38 224.09 108.48 206.28 108.55C174.69 108.68 140.98 108.28 109.38 108.28C103.05 116.61 83.95 140.3 80.8 145.86ZM123.19 196.57C141.95 196.57 187.25 195.33 210.8 196.12C226.01 196.63 221.9 218.23 210.49 218.07L122.48 218.69L123.18 196.56L123.19 196.57Z" fill="#2E2F66"/>
<path d="M707.68 169.975C707.68 170.885 707.63 171.665 707.54 172.315C707.45 172.965 707.3 173.525 707.09 173.975C706.86 174.425 706.61 174.725 706.32 174.935C706.03 175.135 705.71 175.235 705.35 175.235H664.02C663 175.235 662.02 174.855 661.12 174.105C660.21 173.325 659.75 171.985 659.75 170.075V84.9352C659.75 83.0252 660.21 81.6852 661.12 80.9052C662.03 80.1452 663 79.7652 664.02 79.7652H704.87C705.23 79.7652 705.55 79.8652 705.84 80.0652C706.14 80.2652 706.37 80.5652 706.55 81.0152C706.71 81.4752 706.86 82.0252 706.98 82.6752C707.09 83.3352 707.14 84.1652 707.14 85.1452C707.14 86.0452 707.09 86.8052 706.98 87.4852C706.86 88.1352 706.71 88.6952 706.55 89.1152C706.37 89.5252 706.12 89.8252 705.84 90.0252C705.55 90.2252 705.23 90.3252 704.87 90.3252H671.19V120.225H700.1C700.46 120.225 700.78 120.325 701.07 120.555C701.35 120.785 701.59 121.085 701.8 121.485C702 121.885 702.14 122.415 702.23 123.095C702.32 123.805 702.36 124.605 702.36 125.535C702.36 126.465 702.32 127.195 702.23 127.825C702.14 128.485 702 128.985 701.8 129.385C701.59 129.785 701.35 130.065 701.07 130.245C700.78 130.415 700.46 130.495 700.1 130.495H671.19V164.625H705.35C705.71 164.625 706.03 164.725 706.32 164.925C706.61 165.125 706.86 165.425 707.09 165.835C707.3 166.265 707.46 166.815 707.54 167.465C707.63 168.125 707.68 168.955 707.68 169.935M631.74 139.935C631.74 145.725 630.97 150.915 629.45 155.465C627.93 159.995 625.73 163.845 622.89 166.995C620.05 170.145 616.6 172.535 612.52 174.145C608.46 175.775 603.83 176.585 598.64 176.585C593.9 176.585 589.58 175.835 585.68 174.295C581.78 172.785 578.44 170.515 575.65 167.555C572.86 164.585 570.7 160.855 569.2 156.375C567.68 151.925 566.93 146.765 566.93 140.895V81.6852C566.93 81.2852 567.02 80.9352 567.2 80.6552C567.38 80.3552 567.68 80.1252 568.13 79.9452C568.58 79.7652 569.16 79.6152 569.88 79.4952C570.59 79.3652 571.51 79.3152 572.7 79.3152C573.76 79.3152 574.67 79.3652 575.42 79.4952C576.19 79.6252 576.78 79.7652 577.19 79.9452C577.62 80.1252 577.91 80.3452 578.1 80.6552C578.28 80.9352 578.37 81.2852 578.37 81.6852V139.325C578.37 143.735 578.85 147.605 579.82 150.875C580.8 154.175 582.21 156.915 584.04 159.115C585.85 161.305 588.08 162.935 590.67 164.045C593.23 165.155 596.14 165.705 599.39 165.705C602.64 165.705 605.63 165.175 608.22 164.095C610.8 163.015 612.98 161.375 614.78 159.205C616.57 157.045 617.93 154.375 618.89 151.175C619.84 147.985 620.32 144.255 620.32 139.975V81.6752C620.32 81.2752 620.41 80.9252 620.59 80.6452C620.77 80.3452 621.06 80.1152 621.52 79.9352C621.98 79.7552 622.56 79.6052 623.29 79.4852C624.04 79.3552 624.94 79.3052 626.08 79.3052C627.15 79.3052 628.03 79.3552 628.78 79.4852C629.51 79.6152 630.09 79.7552 630.5 79.9352C630.93 80.1152 631.25 80.3352 631.45 80.6452C631.65 80.9252 631.74 81.2752 631.74 81.6752V139.925V139.935ZM552.09 169.675C552.09 170.675 552.04 171.515 551.95 172.165C551.86 172.825 551.72 173.395 551.52 173.875C551.32 174.325 551.09 174.685 550.79 174.905C550.5 175.135 550.16 175.235 549.75 175.235H511.69C510.67 175.235 509.69 174.855 508.78 174.105C507.87 173.325 507.42 171.985 507.42 170.075V81.6952C507.42 81.2952 507.51 80.9452 507.7 80.6652C507.88 80.3652 508.17 80.1352 508.63 79.9552C509.06 79.7752 509.67 79.6252 510.42 79.5052C511.17 79.3752 512.08 79.3252 513.14 79.3252C514.2 79.3252 515.16 79.3752 515.91 79.5052C516.64 79.6352 517.23 79.7752 517.66 79.9552C518.12 80.1352 518.41 80.3552 518.59 80.6652C518.77 80.9452 518.87 81.2952 518.87 81.6952V164.215H549.76C550.17 164.215 550.51 164.315 550.8 164.545C551.07 164.775 551.32 165.095 551.53 165.495C551.74 165.925 551.87 166.485 551.96 167.185C552.05 167.865 552.1 168.695 552.1 169.685M472.84 148.625C472.84 145.785 472.43 143.265 471.61 141.095C470.79 138.935 469.59 137.125 468.02 135.635C466.43 134.155 464.48 133.045 462.1 132.265C459.74 131.515 456.75 131.125 453.16 131.125H439.48V164.815H456.09C458.7 164.815 460.99 164.465 462.94 163.785C464.89 163.105 466.6 162.075 468.09 160.715C469.56 159.355 470.72 157.665 471.56 155.655C472.4 153.645 472.83 151.295 472.83 148.635M467.67 105.125C467.67 102.805 467.38 100.715 466.81 98.8352C466.25 96.9652 465.34 95.3852 464.08 94.0752C462.84 92.7652 461.22 91.7852 459.23 91.0852C457.23 90.4052 454.6 90.0552 451.31 90.0552H439.49V121.015H452.51C455.48 121.015 457.87 120.585 459.7 119.735C461.52 118.855 463.01 117.695 464.22 116.255C465.39 114.795 466.28 113.085 466.83 111.145C467.4 109.215 467.67 107.195 467.67 105.135M484.83 147.865C484.83 150.855 484.49 153.635 483.81 156.145C483.11 158.685 482.15 160.955 480.9 162.995C479.65 165.005 478.15 166.775 476.41 168.305C474.66 169.815 472.69 171.095 470.49 172.135C468.29 173.165 465.93 173.945 463.43 174.455C460.91 174.985 458.05 175.235 454.81 175.235H432.31C431.29 175.235 430.31 174.855 429.41 174.105C428.5 173.325 428.04 171.985 428.04 170.075V84.9352C428.04 83.0252 428.5 81.6852 429.41 80.9052C430.32 80.1452 431.29 79.7652 432.31 79.7652H451.87C457.02 79.7652 461.24 80.2952 464.53 81.3752C467.8 82.4552 470.55 84.0452 472.74 86.1052C474.94 88.1652 476.6 90.7052 477.71 93.7052C478.82 96.7052 479.36 100.095 479.36 103.875C479.36 106.145 479.12 108.305 478.64 110.365C478.14 112.435 477.41 114.345 476.46 116.075C475.51 117.835 474.33 119.395 472.88 120.755C471.43 122.145 469.77 123.275 467.91 124.155C470.27 124.655 472.47 125.545 474.52 126.845C476.54 128.155 478.33 129.815 479.88 131.835C481.4 133.845 482.61 136.215 483.49 138.905C484.38 141.625 484.83 144.595 484.83 147.845" fill="#2E2F66"/>
<path d="M704.46 171.045V168.815L704.37 167.845H667.99V127.325H699.08C699.21 126.095 699.22 124.655 699.06 123.435H667.99V87.1452H703.78C704 86.1252 704.01 83.9553 703.78 82.9553H664.02L663.66 83.0153L663.16 83.3253L663.1 83.5052C662.99 83.8352 662.93 84.3052 662.93 84.9252V170.065C662.93 170.685 662.99 171.165 663.1 171.485L663.17 171.685C663.46 171.925 663.74 172.035 664.01 172.035H704.36L704.46 171.045ZM710.87 169.975L710.82 171.455L710.69 172.745L710.43 174.015C710.31 174.475 710.16 174.905 709.98 175.285L709.92 175.395C709.7 175.845 709.46 176.215 709.22 176.515L709.18 176.555C708.86 176.945 708.5 177.275 708.11 177.545L708.07 177.585C707.69 177.835 707.26 178.045 706.82 178.185L706.76 178.205C706.3 178.335 705.82 178.425 705.33 178.425H664C662.23 178.425 660.57 177.795 659.06 176.545L659.02 176.515C658.13 175.745 657.47 174.745 657.06 173.535C656.71 172.525 656.54 171.365 656.54 170.075V84.9352C656.54 83.6452 656.71 82.4853 657.06 81.4753C657.47 80.2753 658.13 79.2652 659.04 78.4952C659.78 77.8752 660.54 77.4153 661.33 77.1053C662.23 76.7553 663.12 76.5852 664 76.5852H704.85C705.34 76.5852 705.83 76.6652 706.28 76.8052C706.72 76.9352 707.16 77.1553 707.58 77.4453C708.02 77.7253 708.42 78.1153 708.77 78.5753C709.05 78.9553 709.29 79.3853 709.48 79.8553C709.96 81.2353 710.1 82.1652 710.26 83.6152L710.31 85.1653L710.26 86.6353C710.08 88.1753 709.98 88.9953 709.43 90.4553C709.24 90.8753 708.99 91.2653 708.74 91.6053C708.43 92.0053 708.09 92.3352 707.74 92.5952L707.59 92.7053C707.21 92.9553 706.78 93.1652 706.34 93.3052L706.28 93.3253C705.82 93.4553 705.34 93.5352 704.85 93.5352H674.37V117.055H700.09C700.57 117.055 701.07 117.125 701.58 117.295C702.08 117.455 702.56 117.715 703.01 118.055L703.1 118.125C703.41 118.385 703.7 118.685 703.96 119.015L704.67 120.115C704.85 120.485 705.01 120.915 705.13 121.385L705.38 122.705L705.5 124.075L705.55 125.555L705.5 126.995L705.38 128.295L705.12 129.535C705.01 130.005 704.84 130.425 704.66 130.795L704.61 130.895C704.39 131.305 704.14 131.685 703.86 132.005C703.52 132.395 703.17 132.705 702.84 132.925L702.69 133.015C702.27 133.265 701.83 133.445 701.39 133.555C700.95 133.665 700.52 133.715 700.1 133.715H674.38V161.455H705.34C706.33 161.455 707.24 161.745 708.08 162.315C708.48 162.565 708.84 162.895 709.16 163.275L709.18 163.315C709.42 163.605 709.66 163.935 709.86 164.315L709.95 164.475C710.14 164.865 710.31 165.315 710.44 165.785L710.68 167.035L710.81 168.415L710.87 169.965V169.975ZM628.01 147.695C628.37 145.285 628.55 142.685 628.55 139.935V82.7053L627.36 82.5453H624.74L623.51 82.6953V139.985C623.51 142.195 623.37 144.335 623.11 146.395C622.85 148.435 622.45 150.345 621.94 152.085C621.41 153.895 620.75 155.545 619.99 157.035C619.19 158.585 618.27 159.995 617.23 161.245C616.15 162.525 614.97 163.655 613.69 164.615C612.41 165.565 610.99 166.375 609.45 167.025C607.95 167.655 606.34 168.125 604.63 168.435C602.92 168.745 601.17 168.895 599.39 168.895C597.61 168.895 595.87 168.735 594.19 168.415C592.52 168.095 590.93 167.615 589.43 166.965C587.88 166.305 586.44 165.485 585.14 164.515C583.85 163.555 582.66 162.425 581.59 161.135C580.54 159.875 579.59 158.445 578.78 156.855C577.99 155.325 577.31 153.625 576.77 151.785C576.23 149.975 575.82 148.015 575.56 145.945C575.3 143.875 575.17 141.655 575.17 139.325V82.6752L574 82.5352H571.31L570.12 82.6852V140.885C570.12 143.685 570.3 146.285 570.65 148.695C571 151.095 571.52 153.315 572.21 155.345C572.89 157.405 573.72 159.265 574.68 160.925C575.62 162.555 576.72 164.045 577.96 165.355C579.18 166.665 580.54 167.825 582.03 168.835C583.5 169.825 585.1 170.665 586.81 171.325C588.57 172.015 590.43 172.535 592.38 172.875C594.33 173.215 596.42 173.395 598.63 173.395C601.06 173.395 603.34 173.205 605.45 172.835C607.55 172.465 609.51 171.915 611.33 171.185C613.18 170.445 614.86 169.555 616.36 168.525C617.88 167.475 619.28 166.245 620.53 164.865C621.79 163.455 622.92 161.885 623.9 160.165C624.89 158.415 625.74 156.505 626.43 154.445C627.12 152.375 627.65 150.115 628 147.685M634.93 139.935C634.93 142.965 634.72 145.855 634.32 148.615C633.92 151.365 633.29 153.995 632.46 156.485C631.63 158.945 630.62 161.235 629.43 163.325C628.22 165.445 626.82 167.395 625.26 169.135C623.66 170.895 621.9 172.445 619.98 173.775C618.03 175.125 615.93 176.245 613.69 177.125C611.45 178.015 609.06 178.695 606.55 179.135C604.04 179.575 601.39 179.795 598.63 179.795C596.1 179.795 593.64 179.585 591.29 179.175C588.92 178.765 586.66 178.125 584.51 177.275C582.35 176.435 580.33 175.375 578.49 174.135C576.62 172.885 574.9 171.415 573.33 169.745C571.77 168.095 570.38 166.215 569.17 164.115C567.99 162.075 566.99 159.835 566.18 157.405C565.35 154.985 564.73 152.385 564.33 149.635C563.93 146.875 563.73 143.955 563.73 140.905V81.6953C563.73 80.6753 564 79.7452 564.52 78.9252C564.82 78.4452 565.19 78.0452 565.64 77.7152C566.01 77.4352 566.44 77.1952 566.94 77.0052L568.08 76.6353L569.34 76.3652L570.89 76.1953L572.68 76.1353L574.37 76.1953L575.93 76.3652L577.21 76.6353L578.45 77.0453C578.9 77.2353 579.3 77.4652 579.67 77.7452C580.14 78.1052 580.51 78.5252 580.8 79.0052C581.05 79.4052 581.24 79.8552 581.37 80.3352C581.49 80.7952 581.55 81.2553 581.55 81.7053V139.345C581.55 141.445 581.66 143.395 581.89 145.185C582.11 146.935 582.44 148.545 582.87 149.985C583.29 151.435 583.82 152.765 584.43 153.965C585.02 155.125 585.7 156.165 586.48 157.085C587.22 157.975 588.05 158.755 588.95 159.425C589.87 160.105 590.87 160.685 591.92 161.135C592.98 161.595 594.13 161.945 595.36 162.175C596.59 162.405 597.93 162.525 599.39 162.525C600.85 162.525 602.27 162.415 603.51 162.195C604.73 161.975 605.9 161.625 607 161.165C608.03 160.735 609 160.175 609.9 159.515C610.79 158.855 611.61 158.065 612.33 157.195C613.06 156.295 613.73 155.275 614.31 154.155C614.9 152.975 615.41 151.685 615.83 150.285C616.26 148.845 616.59 147.275 616.8 145.595C617.01 143.925 617.12 142.055 617.12 139.985V81.6953C617.12 81.2553 617.18 80.7853 617.3 80.3253C617.42 79.8753 617.59 79.4652 617.81 79.0952C618.11 78.5552 618.52 78.1053 619 77.7353C619.4 77.4253 619.83 77.1852 620.33 76.9952L621.51 76.6252L622.75 76.3652L624.34 76.1852L626.08 76.1252L627.76 76.1852L629.31 76.3553L630.57 76.6252L631.72 77.0052C632.16 77.1852 632.58 77.4153 632.96 77.6953C633.38 78.0053 633.75 78.3853 634.08 78.8553C634.38 79.2853 634.61 79.7552 634.75 80.2552L634.77 80.3152C634.89 80.7752 634.95 81.2352 634.95 81.6852V139.935H634.93ZM548.8 171.725C548.86 171.255 548.9 170.565 548.9 169.675C548.89 168.895 548.87 168.175 548.78 167.405H515.68V82.7053L514.5 82.5453H511.88L510.62 82.7053V170.075C510.62 170.705 510.68 171.175 510.78 171.495L510.86 171.685C511.16 171.925 511.44 172.045 511.7 172.045H548.75L548.8 171.735V171.725ZM555.28 169.675C555.28 170.775 555.22 171.755 555.11 172.585L554.87 173.855C554.58 174.705 554.33 175.555 553.81 176.295C553.51 176.725 553.15 177.105 552.74 177.425C552.29 177.775 551.79 178.035 551.27 178.195C550.75 178.345 550.25 178.425 549.76 178.425H511.7C509.92 178.425 508.27 177.795 506.76 176.555L506.71 176.505C505.82 175.735 505.16 174.735 504.75 173.535C504.41 172.505 504.23 171.355 504.23 170.075V81.6953C504.23 81.2353 504.29 80.7852 504.41 80.3152C504.54 79.8052 504.76 79.3152 505.05 78.8752C505.33 78.4352 505.69 78.0653 506.11 77.7353C506.52 77.4153 506.97 77.1653 507.5 76.9753L508.59 76.6353L509.89 76.3652L511.45 76.1953L513.14 76.1353L514.86 76.1953L516.44 76.3652L517.68 76.6353L518.83 77.0052C519.32 77.1952 519.76 77.4352 520.14 77.7152C520.6 78.0752 520.96 78.4752 521.25 78.9252C521.52 79.3352 521.73 79.7952 521.86 80.2752V80.3253C521.99 80.7653 522.06 81.2453 522.06 81.6953V161.015H549.75C550.24 161.015 550.74 161.095 551.24 161.245C551.78 161.405 552.28 161.665 552.74 162.015L552.83 162.085C553.15 162.355 553.45 162.655 553.69 162.975C553.95 163.305 554.18 163.665 554.37 164.035L554.41 164.125C554.6 164.525 554.76 164.965 554.88 165.455L555.12 166.765L555.25 168.145L555.3 169.665L555.28 169.675ZM475.68 144.105C475.92 145.575 476.04 147.085 476.04 148.625C476.04 150.165 475.91 151.545 475.66 152.945C475.41 154.355 475.02 155.675 474.52 156.865C474.03 158.045 473.43 159.165 472.71 160.215C472 161.265 471.18 162.215 470.27 163.055C469.32 163.905 468.35 164.625 467.35 165.235C466.29 165.855 465.18 166.385 464.01 166.795C462.81 167.215 461.54 167.525 460.24 167.715C458.94 167.915 457.56 168.015 456.12 168.015H436.29V127.945H453.16C455.02 127.945 456.81 128.055 458.49 128.265C460.17 128.475 461.7 128.805 463.06 129.235C464.44 129.675 465.72 130.235 466.92 130.915C468.13 131.595 469.22 132.395 470.19 133.305C471.15 134.215 472 135.235 472.75 136.365C473.47 137.445 474.09 138.655 474.58 139.975C475.06 141.235 475.42 142.625 475.66 144.105M469.65 148.625C469.65 147.315 469.56 146.135 469.4 145.095C469.24 144.075 468.98 143.105 468.64 142.215C468.32 141.375 467.91 140.585 467.44 139.855C467 139.165 466.45 138.525 465.84 137.945C465.24 137.375 464.55 136.875 463.8 136.455C463.04 136.015 462.14 135.635 461.13 135.305C460.14 134.985 458.99 134.745 457.7 134.575C456.41 134.415 454.9 134.325 453.17 134.325H442.68V161.625H456.1C457.24 161.625 458.31 161.545 459.27 161.405C460.26 161.255 461.13 161.045 461.9 160.785C462.67 160.515 463.39 160.175 464.06 159.785C464.76 159.355 465.39 158.895 465.96 158.385C466.51 157.865 467.01 157.285 467.45 156.645C467.9 156.005 468.29 155.265 468.64 154.425C468.98 153.615 469.24 152.745 469.4 151.825C469.57 150.895 469.66 149.825 469.66 148.625M470.61 101.395C470.78 102.615 470.87 103.865 470.87 105.125C470.87 106.275 470.79 107.455 470.62 108.645C470.46 109.785 470.22 110.915 469.89 112.035C469.57 113.185 469.13 114.275 468.62 115.305C468.1 116.345 467.45 117.335 466.72 118.245L466.67 118.305C465.93 119.175 465.09 119.985 464.15 120.715C463.22 121.425 462.19 122.065 461.1 122.595L461.05 122.615C459.91 123.145 458.59 123.545 457.11 123.815C455.7 124.075 454.17 124.195 452.53 124.195H436.29V86.8452H451.3C453.03 86.8452 454.65 86.9452 456.15 87.1452C457.7 87.3452 459.07 87.6552 460.25 88.0552C461.48 88.4952 462.59 89.0152 463.58 89.6252C464.64 90.2852 465.57 91.0252 466.37 91.8752C467.96 93.5452 469.12 95.5652 469.83 97.9052C470.16 98.9952 470.42 100.165 470.59 101.395M464.48 105.125C464.48 104.075 464.42 103.105 464.3 102.245C464.18 101.385 463.99 100.545 463.76 99.7452C463.35 98.3852 462.69 97.2153 461.78 96.2653C461.36 95.8153 460.85 95.4052 460.29 95.0652C459.66 94.6852 458.97 94.3552 458.2 94.0952C457.39 93.8252 456.43 93.6052 455.36 93.4652C454.23 93.3152 452.88 93.2452 451.32 93.2452H442.69V117.815H452.52C453.84 117.815 455 117.725 456 117.545C456.88 117.395 457.67 117.155 458.34 116.855C459.05 116.505 459.7 116.105 460.26 115.675C460.82 115.245 461.34 114.745 461.81 114.185C462.23 113.655 462.62 113.055 462.95 112.405C463.3 111.745 463.58 111.035 463.78 110.285V110.235C464.03 109.445 464.2 108.615 464.32 107.765C464.44 106.945 464.49 106.045 464.49 105.125M480.73 155.335C481.32 153.105 481.63 150.595 481.63 147.875C481.63 146.395 481.53 144.995 481.34 143.685C481.13 142.345 480.83 141.095 480.46 139.925C480.08 138.755 479.61 137.635 479.08 136.595C478.56 135.585 477.98 134.635 477.34 133.795C476.69 132.935 475.98 132.165 475.23 131.465C474.48 130.765 473.66 130.125 472.81 129.575C471.96 129.025 471.07 128.565 470.16 128.205C469.21 127.825 468.25 127.525 467.27 127.315L458.07 125.345L466.57 121.315C467.34 120.945 468.08 120.525 468.77 120.055C469.45 119.595 470.1 119.065 470.7 118.495C471.31 117.925 471.86 117.315 472.35 116.675C472.84 116.035 473.29 115.345 473.68 114.605C474.09 113.845 474.46 113.065 474.76 112.255C475.09 111.415 475.36 110.555 475.56 109.695C475.76 108.815 475.92 107.865 476.04 106.875C476.14 105.955 476.19 104.965 476.19 103.915C476.19 102.145 476.07 100.505 475.83 99.0252C475.59 97.5252 475.22 96.1253 474.75 94.8553C474.26 93.5753 473.67 92.3952 472.98 91.3352C472.3 90.2752 471.5 89.3153 470.59 88.4753C469.67 87.6153 468.62 86.8352 467.46 86.1752C466.29 85.4952 464.98 84.9153 463.54 84.4453C462.06 83.9553 460.38 83.5953 458.51 83.3553C456.6 83.1153 454.39 82.9952 451.88 82.9952H432.32L431.96 83.0552L431.46 83.3652L431.4 83.5453C431.29 83.8753 431.24 84.3452 431.24 84.9652V170.105C431.24 170.725 431.29 171.205 431.4 171.525L431.47 171.725C431.76 171.965 432.04 172.075 432.31 172.075H454.8C456.43 172.075 457.87 172.015 459.11 171.915C460.38 171.805 461.61 171.625 462.77 171.375C463.86 171.155 464.96 170.865 466.05 170.505C467.17 170.135 468.19 169.735 469.12 169.295C470.09 168.835 471.02 168.315 471.87 167.765C472.74 167.205 473.55 166.595 474.3 165.955C475.06 165.275 475.77 164.555 476.41 163.805C477.03 163.075 477.63 162.255 478.19 161.345C478.74 160.445 479.22 159.515 479.62 158.565C480.04 157.565 480.41 156.495 480.73 155.365M488.02 147.875C488.02 151.135 487.64 154.185 486.89 156.975C486.49 158.385 486.02 159.725 485.49 161.005C484.94 162.315 484.31 163.545 483.62 164.665C482.93 165.785 482.15 166.855 481.28 167.885C480.42 168.915 479.49 169.855 478.52 170.715C477.5 171.585 476.45 172.375 475.35 173.085C474.24 173.795 473.06 174.455 471.84 175.025C470.55 175.625 469.29 176.125 468.06 176.535C466.81 176.935 465.48 177.295 464.08 177.575C462.74 177.855 461.26 178.075 459.67 178.215C458.04 178.355 456.41 178.435 454.81 178.435H432.32C430.55 178.435 428.89 177.805 427.38 176.555L427.34 176.525C426.45 175.755 425.79 174.755 425.38 173.545C425.03 172.535 424.86 171.375 424.86 170.085V84.9453C424.86 83.6553 425.03 82.4953 425.38 81.4853C425.79 80.2853 426.45 79.2752 427.36 78.5052C428.1 77.8852 428.86 77.4252 429.65 77.1152C430.55 76.7652 431.44 76.5952 432.32 76.5952H451.88C454.52 76.5952 457.01 76.7452 459.31 77.0352C461.65 77.3352 463.74 77.7752 465.54 78.3752C467.35 78.9752 469.05 79.7352 470.63 80.6452C472.21 81.5452 473.65 82.6253 474.94 83.8253C476.22 85.0253 477.35 86.3752 478.31 87.8452C479.28 89.3152 480.08 90.9153 480.72 92.6353C481.34 94.3353 481.8 96.1252 482.11 97.9952C482.42 99.9052 482.58 101.885 482.58 103.905C482.58 105.105 482.51 106.345 482.37 107.575C482.24 108.755 482.03 109.935 481.76 111.105C481.46 112.335 481.11 113.465 480.72 114.505C480.31 115.605 479.82 116.655 479.28 117.645C478.73 118.655 478.1 119.625 477.41 120.535C476.71 121.455 475.93 122.315 475.08 123.115L474.82 123.355L476.25 124.205C477.43 124.975 478.54 125.835 479.57 126.795C480.59 127.745 481.55 128.795 482.42 129.935C483.31 131.115 484.1 132.365 484.77 133.695C485.44 135.015 486.03 136.435 486.53 137.955C487.03 139.515 487.41 141.105 487.66 142.735C487.91 144.405 488.03 146.115 488.03 147.875" fill="#2E2F66"/>
<path d="M1224.51 138.125V173.315C1224.51 173.715 1224.42 174.075 1224.24 174.345C1224.08 174.645 1223.76 174.875 1223.33 175.045C1222.88 175.225 1222.29 175.375 1221.54 175.505C1220.79 175.625 1219.88 175.685 1218.84 175.685C1217.72 175.685 1216.82 175.635 1216.09 175.505C1215.37 175.375 1214.75 175.225 1214.3 175.045C1213.85 174.865 1213.5 174.645 1213.34 174.345C1213.16 174.065 1213.07 173.715 1213.07 173.315V138.125L1188.74 84.2551C1188.24 83.1151 1187.94 82.2451 1187.83 81.6051C1187.72 80.9551 1187.83 80.4751 1188.17 80.1251C1188.49 79.7951 1189.1 79.5751 1189.96 79.4751C1190.82 79.3751 1191.98 79.3251 1193.45 79.3251C1194.77 79.3251 1195.85 79.3751 1196.67 79.4751C1197.49 79.5751 1198.15 79.6951 1198.62 79.8751C1199.12 80.0551 1199.48 80.3051 1199.74 80.6051C1199.97 80.9351 1200.21 81.3351 1200.42 81.8451L1212.34 109.285C1213.43 111.905 1214.54 114.625 1215.65 117.465C1216.74 120.335 1217.87 123.205 1219.01 126.095H1219.14C1220.16 123.295 1221.21 120.505 1222.27 117.735C1223.36 114.945 1224.45 112.205 1225.56 109.505L1237.52 81.9151C1237.65 81.4151 1237.83 80.9851 1238.08 80.6551C1238.33 80.3051 1238.67 80.0551 1239.08 79.8751C1239.51 79.6951 1240.1 79.5751 1240.85 79.4751C1241.6 79.3751 1242.55 79.3251 1243.71 79.3251C1245.3 79.3251 1246.55 79.3751 1247.46 79.5051C1248.37 79.6251 1249 79.8551 1249.36 80.2051C1249.7 80.5551 1249.84 81.0351 1249.73 81.6951C1249.62 82.3251 1249.32 83.1751 1248.82 84.2651L1224.49 138.135L1224.51 138.125ZM1172.45 92.8151C1172.45 93.7451 1172.4 94.5751 1172.31 95.2851C1172.22 95.9951 1172.08 96.5951 1171.93 97.0751C1171.75 97.5251 1171.53 97.8551 1171.25 98.0551C1171 98.2551 1170.7 98.3551 1170.39 98.3551C1169.87 98.3551 1168.98 97.8751 1167.74 96.9451C1166.49 96.0151 1164.83 94.9551 1162.74 93.8251C1160.65 92.6951 1158.16 91.6351 1155.25 90.7051C1152.35 89.7751 1148.9 89.2951 1144.93 89.2951C1140.17 89.2951 1135.92 90.2451 1132.16 92.1651C1128.39 94.1051 1125.19 96.745 1122.58 100.145C1119.95 103.545 1117.95 107.565 1116.54 112.255C1115.15 116.935 1114.45 121.995 1114.45 127.455C1114.45 133.575 1115.22 138.985 1116.74 143.715C1118.29 148.425 1120.4 152.425 1123.12 155.675C1125.82 158.925 1129.04 161.385 1132.81 163.055C1136.55 164.745 1140.69 165.575 1145.15 165.575C1147.83 165.575 1150.53 165.225 1153.25 164.495C1155.97 163.785 1158.51 162.705 1160.88 161.295V133.405H1140.95C1140.18 133.405 1139.61 132.975 1139.25 132.145C1138.86 131.315 1138.68 130.005 1138.68 128.215C1138.68 127.285 1138.73 126.475 1138.81 125.825C1138.9 125.175 1139.04 124.615 1139.25 124.185C1139.45 123.785 1139.68 123.485 1139.95 123.275C1140.2 123.075 1140.54 122.975 1140.95 122.975H1168.25C1168.75 122.975 1169.22 123.075 1169.72 123.275C1170.2 123.475 1170.65 123.755 1171.04 124.155C1171.45 124.555 1171.76 125.085 1171.97 125.765C1172.2 126.475 1172.31 127.255 1172.31 128.135V164.565C1172.31 165.845 1172.11 166.955 1171.72 167.885C1171.31 168.815 1170.47 169.645 1169.18 170.355C1167.9 171.065 1166.23 171.845 1164.19 172.675C1162.15 173.525 1160.06 174.235 1157.88 174.835C1155.7 175.415 1153.5 175.865 1151.31 176.145C1149.08 176.445 1146.88 176.605 1144.73 176.605C1138.06 176.605 1132.11 175.465 1126.9 173.185C1121.66 170.895 1117.23 167.615 1113.62 163.395C1110.01 159.165 1107.24 154.105 1105.34 148.195C1103.44 142.275 1102.48 135.705 1102.48 128.405C1102.48 121.105 1103.5 113.955 1105.57 107.815C1107.63 101.675 1110.54 96.4351 1114.28 92.0851C1118.03 87.7551 1122.52 84.4051 1127.76 82.0151C1133.02 79.6251 1138.83 78.4451 1145.21 78.4451C1148.5 78.4451 1151.56 78.7751 1154.44 79.3951C1157.32 80.0451 1159.88 80.8051 1162.13 81.6651C1164.36 82.5451 1166.24 83.4751 1167.78 84.5051C1169.3 85.5151 1170.34 86.3451 1170.93 86.9951C1171.5 87.6251 1171.91 88.3851 1172.11 89.2151C1172.34 90.0451 1172.45 91.2551 1172.45 92.8351M1070.08 106.205C1070.08 102.485 1069.33 99.3051 1067.81 96.7151C1066.31 94.1551 1063.79 92.2851 1060.23 91.1451C1059.12 90.7951 1057.87 90.5651 1056.49 90.4151C1055.08 90.2651 1053.27 90.1951 1051 90.1951H1041.36V122.365H1052.52C1055.54 122.365 1058.15 121.965 1060.36 121.155C1062.54 120.325 1064.37 119.195 1065.83 117.755C1067.31 116.295 1068.37 114.585 1069.07 112.625C1069.75 110.655 1070.09 108.525 1070.09 106.205M1087.3 173.325C1087.3 173.725 1087.23 174.055 1087.1 174.355C1086.97 174.655 1086.69 174.905 1086.24 175.105C1085.81 175.275 1085.18 175.435 1084.38 175.525C1083.59 175.625 1082.52 175.675 1081.2 175.675C1080.04 175.675 1079.09 175.625 1078.36 175.525C1077.63 175.425 1077.04 175.275 1076.59 175.045C1076.16 174.825 1075.82 174.515 1075.57 174.115C1075.32 173.735 1075.12 173.235 1074.94 172.655L1067.04 150.125C1066.11 147.555 1065.13 145.215 1064.13 143.075C1063.14 140.935 1061.95 139.095 1060.57 137.535C1059.21 135.975 1057.57 134.785 1055.71 133.905C1053.85 133.045 1051.6 132.625 1048.99 132.625H1041.34V173.305C1041.34 173.705 1041.25 174.035 1041.04 174.335C1040.83 174.635 1040.51 174.865 1040.11 175.035C1039.68 175.215 1039.11 175.365 1038.39 175.495C1037.64 175.615 1036.73 175.675 1035.62 175.675C1034.51 175.675 1033.6 175.625 1032.85 175.495C1032.13 175.365 1031.54 175.215 1031.1 175.035C1030.65 174.855 1030.35 174.635 1030.17 174.335C1029.99 174.055 1029.9 173.705 1029.9 173.305V84.925C1029.9 83.015 1030.35 81.6751 1031.26 80.8951C1032.17 80.1451 1033.15 79.7651 1034.17 79.7651H1052.46C1054.64 79.7651 1056.43 79.8151 1057.88 79.9451C1059.31 80.0751 1060.6 80.2251 1061.76 80.3451C1065.09 81.0051 1068.02 82.0051 1070.59 83.3651C1073.13 84.7551 1075.26 86.4851 1076.99 88.6051C1078.74 90.7151 1080.03 93.1351 1080.89 95.8851C1081.75 98.6051 1082.19 101.625 1082.19 104.925C1082.19 108.225 1081.8 110.965 1081.03 113.505C1080.24 116.025 1079.12 118.265 1077.67 120.205C1076.19 122.145 1074.45 123.835 1072.4 125.265C1070.36 126.675 1068.09 127.885 1065.55 128.865C1066.98 129.575 1068.25 130.425 1069.41 131.485C1070.57 132.545 1071.63 133.825 1072.63 135.285C1073.62 136.765 1074.58 138.475 1075.47 140.395C1076.35 142.305 1077.24 144.475 1078.12 146.885L1085.83 167.925C1086.44 169.685 1086.85 170.945 1087.01 171.655C1087.19 172.355 1087.28 172.915 1087.28 173.315M1006.04 169.975C1006.04 170.885 1005.99 171.665 1005.9 172.315C1005.81 172.965 1005.65 173.525 1005.45 173.975C1005.22 174.435 1004.97 174.735 1004.68 174.935C1004.38 175.135 1004.06 175.235 1003.7 175.235H962.37C961.35 175.235 960.37 174.855 959.46 174.105C958.55 173.325 958.1 171.995 958.1 170.075V84.9351C958.1 83.0251 958.55 81.6851 959.46 80.9051C960.37 80.1551 961.35 79.7751 962.37 79.7751H1003.22C1003.59 79.7751 1003.9 79.8751 1004.2 80.0751C1004.49 80.2751 1004.72 80.5751 1004.9 81.0251C1005.06 81.4751 1005.21 82.0351 1005.33 82.6851C1005.44 83.3451 1005.49 84.1751 1005.49 85.1551C1005.49 86.0651 1005.44 86.8151 1005.33 87.4951C1005.22 88.1451 1005.06 88.7051 1004.9 89.1251C1004.72 89.5251 1004.46 89.8351 1004.2 90.0351C1003.91 90.2351 1003.59 90.3351 1003.22 90.3351H969.55V120.235H998.46C998.82 120.235 999.14 120.335 999.43 120.565C999.71 120.795 999.96 121.095 1000.16 121.495C1000.36 121.905 1000.5 122.425 1000.59 123.105C1000.68 123.815 1000.73 124.615 1000.73 125.545C1000.73 126.475 1000.68 127.205 1000.59 127.835C1000.5 128.495 1000.36 128.995 1000.16 129.395C999.96 129.795 999.71 130.075 999.43 130.255C999.14 130.425 998.82 130.505 998.46 130.505H969.55V164.635H1003.7C1004.06 164.635 1004.38 164.735 1004.68 164.945C1004.97 165.145 1005.22 165.445 1005.45 165.845C1005.65 166.275 1005.81 166.825 1005.9 167.485C1005.99 168.145 1006.04 168.975 1006.04 169.955M929.99 169.925C929.99 170.905 929.83 171.765 929.54 172.435C929.25 173.115 928.86 173.695 928.38 174.125C927.9 174.575 927.36 174.875 926.77 175.085C926.15 175.285 925.56 175.385 924.98 175.385H921.19C920.01 175.385 918.97 175.265 918.06 174.985C917.18 174.705 916.34 174.235 915.52 173.525C914.73 172.825 913.91 171.865 913.12 170.655C912.33 169.445 911.46 167.855 910.56 165.945L884.28 111.645C882.89 108.855 881.51 105.905 880.13 102.835C878.72 99.7551 877.42 96.7651 876.22 93.8751H876.08C876.17 97.4051 876.24 101.025 876.29 104.725C876.34 108.405 876.36 112.075 876.36 115.705V173.325C876.36 173.675 876.27 174.005 876.08 174.335C875.88 174.635 875.56 174.885 875.13 175.065C874.67 175.245 874.1 175.395 873.38 175.525C872.66 175.645 871.73 175.705 870.61 175.705C869.49 175.705 868.54 175.655 867.82 175.525C867.09 175.395 866.53 175.245 866.12 175.065C865.69 174.885 865.4 174.635 865.19 174.335C865.01 174.005 864.92 173.685 864.92 173.325V85.2451C864.92 83.2851 865.42 81.8751 866.44 81.0351C867.44 80.2051 868.53 79.7751 869.73 79.7751H875.36C876.68 79.7751 877.79 79.9051 878.67 80.1551C879.58 80.3851 880.37 80.8051 881.08 81.3651C881.78 81.9251 882.48 82.7251 883.15 83.7351C883.81 84.7451 884.51 86.0051 885.24 87.5351L905.44 129.425C906.69 131.985 907.89 134.485 909.05 136.925C910.21 139.365 911.35 141.755 912.41 144.125C913.47 146.465 914.54 148.805 915.58 151.105C916.65 153.375 917.67 155.685 918.71 158.005H918.78C918.69 154.105 918.62 150.075 918.6 145.875C918.58 141.675 918.58 137.615 918.58 133.735V82.0051C918.58 81.6551 918.67 81.3251 918.85 81.0451C919.06 80.7451 919.37 80.4951 919.8 80.2651C920.26 80.0351 920.85 79.8851 921.55 79.7851C922.28 79.6851 923.23 79.6351 924.41 79.6351C925.44 79.6351 926.32 79.6851 927.07 79.7851C927.82 79.8851 928.41 80.0351 928.82 80.2651C929.25 80.4951 929.54 80.7451 929.75 81.0451C929.93 81.3251 930.02 81.6451 930.02 82.0051V169.935L929.99 169.925ZM841.04 169.975C841.04 170.885 840.99 171.665 840.9 172.315C840.81 172.965 840.65 173.525 840.45 173.975C840.22 174.435 839.97 174.735 839.68 174.935C839.38 175.135 839.07 175.235 838.7 175.235H797.38C796.36 175.235 795.38 174.855 794.47 174.105C793.56 173.325 793.11 171.995 793.11 170.075V84.9351C793.11 83.0251 793.57 81.6851 794.47 80.9051C795.38 80.1551 796.36 79.7751 797.38 79.7751H838.23C838.59 79.7751 838.91 79.8751 839.21 80.0751C839.5 80.2751 839.73 80.5751 839.92 81.0251C840.08 81.4751 840.23 82.0351 840.35 82.6851C840.46 83.3451 840.51 84.1751 840.51 85.1551C840.51 86.0651 840.46 86.8151 840.35 87.4951C840.24 88.1451 840.08 88.7051 839.92 89.1251C839.74 89.5251 839.48 89.8351 839.21 90.0351C838.92 90.2351 838.6 90.3351 838.23 90.3351H804.56V120.235H833.47C833.83 120.235 834.15 120.335 834.45 120.565C834.72 120.795 834.97 121.095 835.18 121.495C835.38 121.905 835.52 122.425 835.61 123.105C835.7 123.815 835.75 124.615 835.75 125.545C835.75 126.475 835.7 127.205 835.61 127.835C835.52 128.495 835.38 128.995 835.18 129.395C834.98 129.795 834.73 130.075 834.45 130.255C834.15 130.425 833.83 130.505 833.47 130.505H804.56V164.635H838.71C839.08 164.635 839.39 164.735 839.69 164.945C839.98 165.145 840.23 165.445 840.46 165.845C840.67 166.275 840.83 166.825 840.91 167.485C841 168.145 841.05 168.975 841.05 169.955" fill="#2E2F66"/>
<path d="M1221.31 172.305V137.465C1229.56 119.155 1237.92 100.895 1246.1 82.5651C1244.85 82.4951 1243.57 82.5251 1242.31 82.5451L1240.61 82.7451C1238.83 89.2551 1231.57 103.655 1228.51 110.705C1226.02 116.895 1223.68 123.045 1221.36 129.295H1216.86C1214.37 123.025 1211.97 116.745 1209.4 110.495C1205.59 101.735 1201.62 91.1651 1197.37 82.8251C1196.62 82.6651 1195.89 82.6051 1195.12 82.5451H1191.48C1199.28 100.875 1208.07 119.265 1216.27 137.475V172.305L1217.5 172.475H1220.09L1221.32 172.315L1221.31 172.305ZM1227.7 138.795V173.325C1227.7 174.265 1227.46 175.155 1227 175.935C1226.71 176.455 1226.3 176.905 1225.83 177.275C1225.45 177.565 1225.03 177.795 1224.56 177.995L1223.31 178.405L1222.07 178.665L1220.51 178.835L1218.84 178.895L1217.12 178.835L1215.57 178.665L1214.28 178.395L1213.12 178.025C1212.69 177.855 1212.26 177.635 1211.86 177.345C1211.39 177.005 1210.99 176.585 1210.69 176.105C1210.4 175.675 1210.2 175.205 1210.07 174.705C1209.95 174.245 1209.89 173.775 1209.89 173.335V138.805C1201.78 120.845 1192.41 101.975 1185.15 83.8151C1184.94 83.2151 1184.79 82.655 1184.71 82.175C1184.58 81.415 1184.6 80.7151 1184.75 80.0651C1184.94 79.2451 1185.33 78.5351 1185.9 77.9451L1185.93 77.8951C1186.41 77.4151 1187.05 77.0151 1187.8 76.7451C1188.33 76.5551 1188.95 76.4051 1189.61 76.3251L1191.37 76.1951L1193.48 76.1451L1195.44 76.1951L1197.08 76.3251L1198.42 76.5451L1199.68 76.8851C1200.19 77.0551 1200.64 77.2851 1201.02 77.5251C1201.51 77.8451 1201.91 78.2051 1202.23 78.5951L1202.89 79.5951L1203.42 80.675C1208.69 92.805 1214.32 105.005 1219.06 117.365C1223.7 105.075 1229.32 92.9751 1234.54 80.9351L1234.91 79.9351C1235.09 79.5351 1235.3 79.1551 1235.54 78.8151C1235.86 78.3751 1236.22 77.9951 1236.62 77.6851C1237.03 77.3751 1237.45 77.1351 1237.89 76.9551C1238.35 76.7751 1238.79 76.6351 1239.23 76.5351L1240.47 76.3251L1242.01 76.1851L1243.76 76.1351L1246.04 76.1851L1247.94 76.3451C1248.64 76.4451 1249.24 76.5851 1249.73 76.7651C1250.49 77.0451 1251.12 77.4251 1251.64 77.9351L1251.68 77.9751C1252.25 78.5551 1252.64 79.2351 1252.84 80.0351C1253.01 80.7351 1253.05 81.4551 1252.92 82.2251V82.2751C1252.83 82.7251 1252.67 83.2751 1252.46 83.8851L1251.76 85.5951L1227.73 138.795H1227.7ZM1169.23 94.0951L1169.26 92.8151C1169.26 91.4751 1169.19 90.5451 1169.05 90.0351L1168.85 89.4951L1168.58 89.1151L1167.71 88.3451L1166.02 87.1351C1165.3 86.6551 1164.56 86.2251 1163.79 85.8451C1163.02 85.4651 1162.07 85.0451 1160.95 84.6051C1159.88 84.1951 1158.76 83.8151 1157.6 83.4751C1156.37 83.1151 1155.08 82.7751 1153.76 82.4751C1152.39 82.1951 1151.01 81.9651 1149.64 81.8251C1148.27 81.6851 1146.79 81.6151 1145.2 81.6151C1142.19 81.6151 1139.35 81.885 1136.69 82.425C1134.03 82.965 1131.47 83.7951 1129.05 84.8951C1126.67 85.9751 1124.43 87.2951 1122.35 88.8551C1120.27 90.4051 1118.37 92.1651 1116.68 94.1351C1114.94 96.1551 1113.4 98.3851 1112.05 100.815C1110.7 103.255 1109.53 105.915 1108.57 108.805C1107.61 111.665 1106.88 114.735 1106.4 117.995C1105.91 121.275 1105.67 124.745 1105.67 128.385C1105.67 132.025 1105.9 135.235 1106.35 138.345C1106.8 141.475 1107.48 144.425 1108.37 147.195C1109.26 149.955 1110.35 152.525 1111.62 154.855C1112.89 157.195 1114.37 159.345 1116.04 161.295C1117.68 163.215 1119.52 164.935 1121.54 166.425C1123.57 167.915 1125.78 169.195 1128.17 170.235C1130.55 171.275 1133.13 172.065 1135.87 172.595C1138.62 173.115 1141.58 173.385 1144.74 173.385L1147.8 173.285C1148.83 173.215 1149.87 173.105 1150.9 172.965C1151.83 172.855 1152.85 172.675 1153.94 172.465L1157.09 171.735L1160.08 170.815L1163 169.715L1165.63 168.565L1167.68 167.535C1168.07 167.325 1168.37 167.125 1168.58 166.925L1168.83 166.605L1169.06 165.775L1169.15 164.545V128.115L1169.1 127.315C1168.28 123.335 1147.28 126.145 1142.01 126.145C1141.89 126.745 1141.91 127.565 1141.9 128.185C1141.9 128.935 1141.94 129.565 1142 130.035L1142.03 130.175H1164.1V163.065L1162.54 163.995C1161.2 164.795 1159.82 165.495 1158.41 166.085C1157.04 166.655 1155.59 167.155 1154.1 167.545C1152.64 167.945 1151.15 168.245 1149.63 168.435C1148.09 168.635 1146.6 168.745 1145.17 168.745C1142.75 168.745 1140.38 168.515 1138.07 168.045C1135.8 167.585 1133.61 166.875 1131.54 165.955C1129.44 165.035 1127.47 163.865 1125.65 162.475C1123.87 161.115 1122.22 159.515 1120.7 157.705C1119.19 155.905 1117.85 153.905 1116.69 151.735C1115.55 149.595 1114.56 147.235 1113.72 144.695C1112.91 142.135 1112.29 139.415 1111.88 136.545C1111.48 133.645 1111.27 130.615 1111.27 127.445C1111.27 124.615 1111.46 121.845 1111.83 119.125C1112.2 116.435 1112.76 113.835 1113.5 111.345C1114.26 108.805 1115.18 106.455 1116.26 104.285C1117.35 102.095 1118.62 100.055 1120.06 98.1951C1121.5 96.3251 1123.12 94.6351 1124.91 93.1451C1126.7 91.6551 1128.64 90.3751 1130.7 89.3151C1132.83 88.2351 1135.08 87.4251 1137.47 86.8951C1139.86 86.3551 1142.36 86.0851 1144.93 86.0851C1147 86.0851 1149 86.2251 1150.9 86.4751C1152.82 86.7351 1154.6 87.1351 1156.23 87.6551C1157.75 88.1451 1159.17 88.6651 1160.47 89.2051C1161.84 89.7751 1163.11 90.3851 1164.25 90.9951L1167.16 92.6851L1169.23 94.0751V94.0951ZM1175.64 92.8151C1175.64 93.8151 1175.58 94.7851 1175.47 95.6851L1175.26 96.9151L1174.88 98.2651C1174.71 98.7051 1174.5 99.0951 1174.26 99.4551C1173.94 99.9051 1173.58 100.265 1173.22 100.555C1172.84 100.865 1172.41 101.105 1171.95 101.275L1171.85 101.295C1171.36 101.455 1170.87 101.545 1170.39 101.545C1169.61 101.545 1168.76 101.295 1167.86 100.815C1167.22 100.465 1166.55 100.035 1165.84 99.4951L1163.81 98.1151L1161.25 96.6151C1160.28 96.0951 1159.2 95.5751 1158.04 95.0951C1156.89 94.6151 1155.63 94.1551 1154.29 93.7251C1153.02 93.3151 1151.6 93.0051 1150.06 92.7951C1148.53 92.5851 1146.81 92.4751 1144.94 92.4751C1142.76 92.4751 1140.73 92.6851 1138.88 93.0951C1137.04 93.5051 1135.28 94.1351 1133.63 94.9751C1131.93 95.8451 1130.37 96.8751 1128.98 98.0351C1127.58 99.1951 1126.29 100.545 1125.12 102.065C1123.92 103.605 1122.87 105.285 1121.97 107.115C1121.04 108.985 1120.25 111.005 1119.61 113.155C1118.97 115.325 1118.48 117.615 1118.15 119.985C1117.83 122.325 1117.66 124.815 1117.66 127.445C1117.66 130.385 1117.84 133.125 1118.19 135.645C1118.55 138.185 1119.09 140.545 1119.78 142.725C1120.49 144.885 1121.34 146.905 1122.32 148.735C1123.28 150.545 1124.37 152.175 1125.58 153.625C1126.76 155.055 1128.08 156.325 1129.51 157.425C1130.91 158.485 1132.45 159.395 1134.11 160.125C1135.78 160.885 1137.53 161.445 1139.34 161.815C1141.16 162.185 1143.1 162.365 1145.16 162.365C1146.41 162.365 1147.62 162.285 1148.77 162.135C1149.96 161.985 1151.19 161.735 1152.44 161.395C1153.65 161.085 1154.82 160.695 1155.95 160.215L1157.69 159.405V136.575H1140.96C1139.88 136.575 1138.9 136.255 1138.05 135.625C1137.33 135.085 1136.78 134.365 1136.37 133.455C1136.04 132.755 1135.81 131.935 1135.67 130.995C1135.55 130.135 1135.49 129.215 1135.49 128.195L1135.54 126.735L1135.67 125.375L1135.92 124.095C1136.04 123.635 1136.2 123.185 1136.41 122.765C1136.62 122.335 1136.84 121.985 1137.07 121.685C1137.34 121.335 1137.64 121.035 1137.96 120.785C1138.41 120.415 1138.92 120.155 1139.46 119.985H1139.51C1139.98 119.835 1140.48 119.755 1140.97 119.755H1168.27C1168.69 119.755 1169.15 119.805 1169.62 119.905C1170.01 119.965 1170.46 120.115 1170.94 120.305H1170.98C1171.41 120.495 1171.81 120.705 1172.16 120.925L1172.2 120.955C1172.58 121.205 1172.95 121.505 1173.3 121.855C1173.7 122.245 1174.05 122.705 1174.35 123.205C1174.64 123.695 1174.88 124.235 1175.05 124.825C1175.22 125.365 1175.34 125.895 1175.41 126.405C1175.49 126.975 1175.53 127.545 1175.53 128.105V164.535C1175.53 165.335 1175.46 166.115 1175.33 166.865C1175.2 167.655 1174.98 168.395 1174.71 169.055L1174.67 169.145C1174.3 169.975 1173.75 170.755 1173.03 171.455C1172.38 172.075 1171.62 172.635 1170.74 173.115L1168.31 174.335L1165.41 175.595L1162.14 176.835L1158.71 177.885C1157.5 178.205 1156.31 178.485 1155.19 178.715C1154.13 178.925 1152.98 179.115 1151.75 179.265C1150.56 179.425 1149.38 179.555 1148.23 179.635C1146.98 179.715 1145.82 179.765 1144.75 179.765C1141.24 179.765 1137.88 179.455 1134.68 178.845C1131.49 178.225 1128.47 177.295 1125.64 176.065C1122.8 174.825 1120.18 173.315 1117.79 171.555C1115.37 169.775 1113.18 167.725 1111.22 165.425C1109.27 163.135 1107.54 160.625 1106.05 157.885C1104.57 155.175 1103.33 152.255 1102.32 149.125C1101.31 145.985 1100.55 142.685 1100.05 139.225C1099.55 135.755 1099.3 132.135 1099.3 128.365C1099.3 124.595 1099.57 120.645 1100.11 117.035C1100.65 113.455 1101.46 110.025 1102.56 106.755C1103.65 103.515 1104.97 100.485 1106.52 97.6951C1108.08 94.8851 1109.87 92.2951 1111.87 89.9651C1113.92 87.5951 1116.15 85.5051 1118.56 83.7151C1120.96 81.9251 1123.59 80.3751 1126.44 79.0751C1129.29 77.7751 1132.29 76.8051 1135.44 76.1651C1138.59 75.5251 1141.86 75.1951 1145.22 75.1951C1146.91 75.1951 1148.61 75.2851 1150.31 75.4651C1152 75.6451 1153.62 75.8951 1155.13 76.2251C1156.68 76.5851 1158.11 76.9551 1159.42 77.3451C1160.82 77.7651 1162.12 78.1951 1163.28 78.6351H1163.32C1164.43 79.0851 1165.54 79.5851 1166.65 80.1351C1167.76 80.6851 1168.74 81.2551 1169.58 81.8151L1171.67 83.3151C1172.36 83.8551 1172.9 84.3451 1173.31 84.7951C1173.77 85.3151 1174.18 85.8951 1174.49 86.4851C1174.82 87.0951 1175.06 87.7351 1175.22 88.3951C1175.51 89.5251 1175.66 90.9951 1175.66 92.7751M1072.62 100.295C1073.05 102.125 1073.28 104.105 1073.28 106.205C1073.28 107.465 1073.18 108.755 1072.98 110.045C1072.78 111.325 1072.47 112.535 1072.09 113.655V113.695C1071.66 114.855 1071.11 115.995 1070.44 117.055C1069.78 118.115 1068.98 119.105 1068.07 120.015C1067.16 120.915 1066.15 121.695 1065.06 122.375C1064 123.035 1062.8 123.625 1061.51 124.115L1061.45 124.145C1060.18 124.605 1058.77 124.955 1057.24 125.195C1055.77 125.435 1054.19 125.545 1052.53 125.545H1038.18V86.9851H1051.02L1054.21 87.0551L1056.85 87.2351L1059.09 87.5651C1059.8 87.6951 1060.51 87.8851 1061.21 88.1051C1063.32 88.7651 1065.15 89.6751 1066.7 90.8151C1068.33 92.0151 1069.63 93.4451 1070.59 95.0951C1071.51 96.6851 1072.19 98.4251 1072.64 100.285M1066.89 106.205C1066.89 104.585 1066.73 103.095 1066.41 101.765C1066.1 100.475 1065.65 99.3251 1065.07 98.3251C1064.52 97.4051 1063.8 96.6151 1062.91 95.9651C1061.95 95.2551 1060.73 94.6551 1059.27 94.1951L1057.86 93.8451L1056.15 93.5951L1053.94 93.4451L1044.55 93.4051V119.185H1052.52C1053.88 119.185 1055.13 119.095 1056.27 118.925C1057.34 118.775 1058.35 118.515 1059.27 118.185C1060.13 117.855 1060.95 117.445 1061.69 116.985C1062.4 116.535 1063.05 116.045 1063.59 115.505C1064.14 114.955 1064.63 114.355 1065.03 113.715C1065.44 113.065 1065.79 112.345 1066.07 111.575C1066.35 110.745 1066.57 109.905 1066.7 109.065C1066.83 108.225 1066.9 107.265 1066.9 106.215M1082.82 172.475L1083.94 172.385L1082.86 169.035L1075.14 147.995L1073.86 144.675L1072.59 141.745L1071.33 139.255L1070.01 137.095C1069.58 136.465 1069.12 135.855 1068.65 135.305C1068.24 134.805 1067.77 134.315 1067.26 133.855C1066.84 133.455 1066.34 133.065 1065.8 132.705C1065.24 132.325 1064.69 131.995 1064.15 131.735L1057.6 128.535L1064.41 125.915C1065.53 125.485 1066.63 124.985 1067.68 124.425C1068.72 123.875 1069.69 123.285 1070.6 122.665C1071.47 122.055 1072.28 121.385 1073.04 120.655C1073.78 119.935 1074.49 119.145 1075.14 118.295C1075.74 117.475 1076.29 116.595 1076.75 115.685C1077.21 114.765 1077.63 113.715 1077.99 112.575C1078.32 111.455 1078.58 110.285 1078.74 109.065C1078.91 107.825 1078.99 106.445 1078.99 104.955C1078.99 103.465 1078.89 101.985 1078.7 100.655C1078.51 99.3151 1078.22 98.0551 1077.85 96.8851C1077.47 95.6651 1077 94.5451 1076.46 93.5351C1075.93 92.5351 1075.28 91.5751 1074.53 90.6651C1073.79 89.7551 1072.98 88.9351 1072.08 88.2151C1071.18 87.4651 1070.18 86.8051 1069.1 86.2151C1067.97 85.6151 1066.75 85.0851 1065.44 84.6451C1064.12 84.1951 1062.72 83.8251 1061.23 83.5251L1057.59 83.1551L1055.33 83.0251L1034.15 82.9951L1033.82 83.0551L1033.31 83.3451L1033.24 83.5451C1033.13 83.8651 1033.08 84.3451 1033.08 84.9651V172.335L1034.26 172.495H1036.92L1038.13 172.335V129.475H1048.97C1050.45 129.475 1051.87 129.605 1053.22 129.855C1054.58 130.115 1055.86 130.525 1057.02 131.055C1058.16 131.595 1059.23 132.225 1060.2 132.945C1061.21 133.695 1062.13 134.535 1062.95 135.475C1063.73 136.355 1064.47 137.345 1065.15 138.405C1065.82 139.445 1066.44 140.575 1067 141.775L1068.53 145.255L1070.01 149.085C1072.61 156.505 1075.18 165.145 1078.15 172.275L1078.76 172.395L1079.78 172.485H1082.79L1082.82 172.475ZM1090.5 173.315C1090.5 174.155 1090.33 174.895 1090.01 175.635V175.685C1089.76 176.205 1089.39 176.725 1088.88 177.165C1088.49 177.495 1088.05 177.785 1087.56 178.005L1086.14 178.455L1084.79 178.685L1083.14 178.825L1081.22 178.875L1079.48 178.825L1077.96 178.685L1076.58 178.415C1076.1 178.285 1075.63 178.105 1075.2 177.895L1075.14 177.865C1074.69 177.635 1074.28 177.345 1073.93 177.035C1073.53 176.675 1073.18 176.255 1072.9 175.805C1069.43 169.215 1066.64 158.515 1064.07 151.185L1062.71 147.675L1061.29 144.435C1060.84 143.485 1060.37 142.625 1059.86 141.825C1059.37 141.065 1058.82 140.345 1058.24 139.675C1057.68 139.035 1057.09 138.495 1056.48 138.045C1055.84 137.565 1055.14 137.155 1054.43 136.815C1053.74 136.505 1052.95 136.255 1052.09 136.095C1051.2 135.925 1050.17 135.835 1049.04 135.835H1044.58V173.325C1044.58 173.765 1044.52 174.215 1044.39 174.695C1044.26 175.195 1044.04 175.665 1043.75 176.115L1043.71 176.175C1043.41 176.625 1043.02 177.005 1042.6 177.325C1042.26 177.575 1041.87 177.795 1041.45 177.975L1040.22 178.395C1039.11 178.635 1038.54 178.715 1037.39 178.835L1035.67 178.895L1033.95 178.835C1032.8 178.715 1032.24 178.635 1031.13 178.395L1029.98 178.025C1029.48 177.835 1029.05 177.595 1028.66 177.305C1028.16 176.915 1027.78 176.495 1027.5 176.035C1027.25 175.615 1027.06 175.155 1026.93 174.705C1026.81 174.235 1026.75 173.785 1026.75 173.325V84.9451C1026.75 83.6651 1026.92 82.5151 1027.26 81.4951C1027.67 80.2651 1028.34 79.2651 1029.23 78.5051L1029.27 78.4751C1029.99 77.8751 1030.75 77.4151 1031.53 77.1051C1032.4 76.7551 1033.3 76.5851 1034.2 76.5851H1052.5L1055.58 76.6451L1058.19 76.7851C1059.59 76.9251 1061.02 77.0451 1062.41 77.2351C1064.22 77.5951 1065.93 78.0551 1067.54 78.6051C1069.16 79.1651 1070.69 79.8251 1072.11 80.5751L1072.15 80.5951C1073.58 81.3751 1074.92 82.2651 1076.14 83.2651C1077.37 84.2651 1078.48 85.3751 1079.48 86.5951C1080.48 87.7951 1081.36 89.1051 1082.12 90.5251C1082.87 91.9251 1083.5 93.4151 1083.98 94.9551C1084.46 96.4851 1084.83 98.0951 1085.06 99.7451C1085.3 101.425 1085.42 103.165 1085.42 104.945C1085.42 106.625 1085.31 108.275 1085.09 109.895C1084.87 111.515 1084.54 113.045 1084.12 114.445V114.485C1083.68 115.855 1083.13 117.215 1082.47 118.525C1081.82 119.815 1081.08 121.025 1080.26 122.125L1080.23 122.165C1079.41 123.245 1078.48 124.275 1077.48 125.245C1076.5 126.185 1075.42 127.085 1074.25 127.895L1071.85 129.415C1072.4 129.935 1072.97 130.545 1073.52 131.205C1074.13 131.915 1074.72 132.695 1075.28 133.515C1075.83 134.345 1076.37 135.225 1076.89 136.165C1077.42 137.115 1077.92 138.095 1078.37 139.075L1079.76 142.275L1081.13 145.805C1083.99 153.605 1087 161.395 1089.65 169.265L1090.12 170.915L1090.38 172.105L1090.5 173.335V173.315ZM1002.83 171.025V168.825L1002.74 167.845H966.36V127.325H997.45C997.54 126.325 997.53 125.425 997.52 124.425L997.42 123.435H966.36V87.1451H1002.16L1002.28 86.2351V84.0051L1002.15 82.9651H962.38L962.05 83.0251L961.54 83.3151L961.47 83.5151C961.36 83.8351 961.3 84.3151 961.3 84.9351V170.075C961.3 170.695 961.36 171.175 961.47 171.495L961.55 171.705C961.83 171.935 962.12 172.045 962.37 172.045H1002.72L1002.82 171.035L1002.83 171.025ZM1009.24 169.975L1009.19 171.415L1009.06 172.735L1008.81 174.015L1008.29 175.405C1008.07 175.835 1007.83 176.225 1007.56 176.565C1007.25 176.955 1006.88 177.285 1006.49 177.555L1006.46 177.595C1006.09 177.845 1005.66 178.045 1005.18 178.195L1005.14 178.215C1004.69 178.345 1004.21 178.425 1003.7 178.425H962.38C960.62 178.425 958.95 177.795 957.44 176.545L957.39 176.505C956.51 175.735 955.85 174.745 955.44 173.535C955.09 172.525 954.92 171.365 954.92 170.075V84.9351C954.92 83.6451 955.09 82.4851 955.44 81.4751C955.85 80.2651 956.51 79.2551 957.4 78.4951L957.44 78.4651C958.16 77.8651 958.93 77.4051 959.71 77.0951C960.58 76.7451 961.48 76.5751 962.38 76.5751H1003.23C1003.73 76.5751 1004.22 76.6551 1004.67 76.7951C1005.11 76.9251 1005.55 77.1451 1005.97 77.4351C1006.41 77.7051 1006.81 78.0951 1007.15 78.5651C1007.42 78.9351 1007.67 79.3651 1007.86 79.8451C1008.15 80.6651 1008.28 81.3051 1008.47 82.1551L1008.62 83.6051L1008.68 85.1551L1008.63 86.6251L1008.47 88.0251L1008.23 89.1551C1008.09 89.5951 1007.98 90.0751 1007.78 90.4951C1007.59 90.8951 1007.36 91.2851 1007.08 91.6351C1006.79 92.0151 1006.45 92.3351 1006.11 92.5951L1005.96 92.7051C1005.58 92.9551 1005.16 93.1651 1004.71 93.3051L1004.65 93.3251C1004.2 93.4651 1003.71 93.5451 1003.21 93.5451H972.73V117.065H998.45C998.93 117.065 999.42 117.145 999.94 117.305C1000.45 117.455 1000.93 117.725 1001.37 118.055L1001.43 118.105C1001.76 118.375 1002.05 118.675 1002.3 118.985C1002.57 119.335 1002.82 119.695 1003 120.055C1003.22 120.515 1003.38 120.945 1003.49 121.385L1003.75 122.725L1003.87 124.075L1003.92 125.555L1003.87 126.995L1003.74 128.245L1003.48 129.565C1003.36 130.015 1003.2 130.435 1003 130.835V130.875C1002.77 131.295 1002.52 131.655 1002.27 131.965C1001.93 132.365 1001.56 132.695 1001.16 132.945L1001.05 133.015C1000.64 133.265 1000.2 133.445 999.75 133.555C999.31 133.665 998.87 133.715 998.46 133.715H972.74V161.455H1003.7C1004.71 161.455 1005.62 161.745 1006.45 162.305C1006.85 162.565 1007.21 162.905 1007.52 163.275C1007.77 163.565 1008 163.915 1008.23 164.315L1008.33 164.505C1008.5 164.875 1008.66 165.295 1008.79 165.755L1009.05 167.085L1009.18 168.435L1009.23 169.975H1009.24ZM926.75 170.715L926.8 169.925V82.9551L925.62 82.8451H922.97L921.76 82.9751C921.76 109.045 921.52 135.125 922 161.195H916.64C905.74 136.825 893.96 112.995 882.35 88.925L881.39 87.0351L880.46 85.4751L879.72 84.4851L879.1 83.8851L878.49 83.4951C877.76 83.2151 877.62 83.2051 876.8 83.0551L875.35 82.9851H869.72L869.15 83.0751C868.94 83.1551 868.71 83.3051 868.48 83.4951L868.29 83.8051C868.17 84.1351 868.11 84.6251 868.11 85.2551V172.335L869.24 172.485H871.95L873.17 172.325C873.17 145.115 873.44 117.895 872.84 90.6951H878.34L881.01 97.0351L885.09 106.015L913.43 164.585L914.67 167.055L915.77 168.925L916.74 170.225L917.63 171.155L918.35 171.665L919.02 171.955L919.92 172.135L921.2 172.205L925.33 172.185C926.15 171.965 926.23 171.945 926.62 171.205L926.76 170.725L926.75 170.715ZM933.19 169.925C933.19 170.545 933.13 171.195 933.01 171.855C932.89 172.515 932.71 173.125 932.47 173.685C932.25 174.205 931.97 174.725 931.64 175.195C931.33 175.655 930.97 176.075 930.57 176.435C930.16 176.835 929.7 177.165 929.24 177.445L929.19 177.475C928.77 177.715 928.3 177.925 927.8 178.095L926.41 178.455C925.88 178.535 925.4 178.585 924.98 178.585H921.19C920.53 178.585 919.85 178.535 919.13 178.445C918.47 178.375 917.79 178.235 917.13 178.025C916.45 177.825 915.8 177.535 915.18 177.185C914.59 176.835 914.01 176.425 913.43 175.925C912.87 175.435 912.34 174.885 911.84 174.295C911.38 173.735 910.91 173.105 910.45 172.415L909.06 170.075L907.67 167.335L879.49 109.095C879.71 130.475 879.53 151.935 879.54 173.325C879.54 173.755 879.48 174.205 879.36 174.655C879.23 175.115 879.06 175.525 878.84 175.905L878.71 176.115C878.42 176.535 878.04 176.935 877.6 177.275C877.23 177.555 876.79 177.805 876.33 177.995L875.15 178.375L873.92 178.645L872.34 178.815L870.61 178.875L868.86 178.815L867.3 178.645L866.04 178.375L864.89 177.995C864.41 177.785 863.98 177.535 863.61 177.245C863.19 176.915 862.84 176.535 862.57 176.135L862.39 175.845C862.2 175.495 862.04 175.115 861.93 174.715C861.78 174.215 861.72 173.745 861.72 173.315V85.2351C861.72 83.9051 861.92 82.7051 862.3 81.6251C862.74 80.3851 863.45 79.3751 864.4 78.5851C865.16 77.9451 865.98 77.4551 866.86 77.1151C867.79 76.7551 868.75 76.5751 869.72 76.5751H875.35C876.09 76.5751 876.83 76.6151 877.53 76.6951C878.19 76.7651 878.83 76.8951 879.44 77.0551C880.13 77.2151 880.78 77.4751 881.39 77.7851C881.97 78.0751 882.53 78.4451 883.04 78.8451C883.54 79.2451 884.03 79.7251 884.52 80.2751C884.96 80.7751 885.39 81.3551 885.8 81.9651L886.99 83.9551L888.1 86.1451C897.21 105.045 906.69 123.945 915.4 143.045L915.37 81.9851C915.37 81.5351 915.44 81.0651 915.57 80.6051C915.71 80.1451 915.91 79.7051 916.15 79.3251L916.22 79.2151C916.49 78.8251 916.83 78.4651 917.21 78.1451L917.25 78.1251C917.58 77.8651 917.93 77.6351 918.3 77.4351C918.75 77.2051 919.23 77.0251 919.74 76.8851L921.09 76.6151L922.62 76.4851L924.39 76.4351L926 76.4851L927.46 76.6151L928.84 76.8851C929.43 77.0351 929.96 77.2351 930.38 77.4851L931.38 78.1551C931.78 78.4951 932.11 78.8551 932.37 79.2451C932.65 79.6551 932.86 80.1251 932.99 80.6051C933.12 81.0951 933.19 81.5551 933.19 81.9851V169.915V169.925ZM837.74 171.875C837.8 171.405 837.84 170.765 837.84 169.975C837.83 169.295 837.84 168.515 837.73 167.855H801.35V127.335H832.45C832.53 126.345 832.52 125.435 832.51 124.435L832.41 123.445H801.35V87.1551H837.15L837.27 86.2451V84.0151L837.13 82.9751H797.36L797.03 83.0351L796.51 83.3451L796.45 83.5251C796.34 83.8451 796.29 84.3251 796.29 84.9451V170.085C796.29 170.715 796.35 171.195 796.45 171.515L796.52 171.695C796.81 171.935 797.1 172.045 797.35 172.045H837.7L837.72 171.885L837.74 171.875ZM844.23 169.975C844.23 170.995 844.17 171.925 844.06 172.755L843.8 174.015C843.68 174.475 843.52 174.905 843.35 175.285L843.29 175.395C843.07 175.825 842.83 176.215 842.56 176.555C842.24 176.945 841.88 177.275 841.49 177.545L841.42 177.595C841.04 177.845 840.63 178.045 840.21 178.185L840.15 178.205C839.69 178.335 839.21 178.415 838.71 178.415H797.38C795.62 178.415 793.94 177.785 792.44 176.535L792.4 176.505C791.5 175.735 790.84 174.725 790.43 173.505C790.09 172.485 789.91 171.335 789.91 170.055V84.9151C789.91 83.6351 790.08 82.4851 790.43 81.4651C790.84 80.2551 791.5 79.2451 792.41 78.4751C793.16 77.8551 793.92 77.3851 794.7 77.0851C795.56 76.7451 796.46 76.5651 797.37 76.5651H838.22C838.71 76.5651 839.21 76.6451 839.66 76.7851C840.11 76.9351 840.55 77.145 840.96 77.425C841.4 77.705 841.8 78.0951 842.15 78.5551C842.43 78.9351 842.67 79.3651 842.86 79.8351L843.23 81.0351L843.48 82.1451L843.63 83.5951L843.69 85.1451L843.64 86.6151L843.48 88.0151L843.23 89.1951L842.81 90.4351C842.63 90.8551 842.38 91.2451 842.12 91.5851C841.81 91.9851 841.47 92.3151 841.12 92.5751L840.97 92.6851C840.62 92.9151 840.19 93.1251 839.74 93.2751L839.67 93.3151C839.21 93.4551 838.72 93.5351 838.23 93.5351H807.75V117.055H833.47C833.96 117.055 834.46 117.125 834.97 117.295C835.46 117.455 835.92 117.705 836.36 118.025L836.48 118.125C836.79 118.375 837.08 118.675 837.32 118.975C837.6 119.335 837.84 119.705 838.02 120.045C838.23 120.505 838.4 120.935 838.51 121.375C838.82 122.945 838.88 123.905 838.93 125.545L838.88 126.985C838.78 128.045 838.71 128.505 838.49 129.545C838.37 129.995 838.21 130.415 838.01 130.815C837.79 131.255 837.53 131.645 837.28 131.935C836.94 132.335 836.56 132.665 836.17 132.915L836.02 133.005C835.61 133.245 835.19 133.425 834.76 133.535C834.32 133.645 833.89 133.695 833.46 133.695H807.74V161.435H838.7C839.72 161.435 840.61 161.715 841.45 162.285C841.85 162.545 842.21 162.885 842.52 163.255C842.77 163.545 843 163.895 843.23 164.295L843.32 164.455C843.5 164.845 843.67 165.275 843.79 165.715L844.06 167.045L844.19 168.415L844.24 169.945L844.23 169.975Z" fill="#2E2F66"/>
<path d="M1249.86 257.655H1003.41V263.115H1249.86V257.655Z" fill="#2E2F66"/>
<path d="M674.51 257.655H427.7V263.115H674.51V257.655Z" fill="#2E2F66"/>
<path d="M967.17 270.745C967.17 272.595 966.86 274.245 966.24 275.705C965.62 277.155 964.76 278.385 963.66 279.405C962.56 280.405 961.27 281.175 959.78 281.685C958.29 282.195 956.69 282.445 954.97 282.445C953.77 282.445 952.66 282.335 951.63 282.115C950.6 281.885 949.69 281.605 948.88 281.285C948.07 280.955 947.41 280.615 946.86 280.265C946.32 279.915 945.93 279.615 945.72 279.365C945.5 279.125 945.35 278.815 945.25 278.435C945.15 278.055 945.1 277.555 945.1 276.925C945.1 276.475 945.12 276.095 945.16 275.805C945.2 275.515 945.26 275.275 945.33 275.095C945.4 274.905 945.5 274.785 945.61 274.705C945.73 274.635 945.85 274.595 946 274.595C946.26 274.595 946.63 274.775 947.1 275.125C947.57 275.465 948.17 275.845 948.91 276.255C949.65 276.655 950.54 277.045 951.58 277.395C952.62 277.745 953.83 277.925 955.19 277.925C956.23 277.925 957.18 277.765 958.03 277.465C958.89 277.165 959.63 276.735 960.25 276.165C960.87 275.605 961.35 274.925 961.68 274.095C962.01 273.285 962.18 272.355 962.18 271.315C962.18 270.195 961.95 269.235 961.49 268.435C961.03 267.645 960.42 266.935 959.67 266.335C958.9 265.735 958.04 265.185 957.08 264.685C956.11 264.185 955.11 263.685 954.1 263.155C953.09 262.635 952.1 262.055 951.15 261.415C950.19 260.785 949.32 260.045 948.57 259.185C947.81 258.325 947.2 257.325 946.74 256.165C946.27 255.015 946.03 253.635 946.03 252.025C946.03 250.415 946.3 248.885 946.84 247.595C947.39 246.305 948.15 245.215 949.11 244.345C950.08 243.465 951.24 242.795 952.57 242.335C953.91 241.875 955.35 241.645 956.9 241.645C957.69 241.645 958.49 241.715 959.29 241.875C960.09 242.035 960.85 242.235 961.55 242.495C962.26 242.745 962.89 243.045 963.45 243.355C964 243.665 964.37 243.935 964.53 244.115C964.71 244.315 964.82 244.465 964.88 244.575C964.93 244.685 964.97 244.835 965.01 245.005C965.05 245.185 965.08 245.395 965.1 245.645C965.12 245.885 965.13 246.205 965.13 246.595C965.13 246.965 965.12 247.285 965.09 247.575C965.07 247.855 965.02 248.095 964.96 248.295C964.92 248.485 964.83 248.625 964.73 248.725C964.63 248.815 964.51 248.865 964.38 248.865C964.18 248.865 963.86 248.715 963.43 248.435C963 248.145 962.47 247.825 961.84 247.465C961.22 247.105 960.47 246.785 959.61 246.495C958.76 246.195 957.79 246.045 956.72 246.045C955.73 246.045 954.86 246.195 954.12 246.485C953.38 246.785 952.77 247.175 952.29 247.665C951.81 248.155 951.46 248.735 951.21 249.405C950.97 250.085 950.85 250.795 950.85 251.545C950.85 252.645 951.08 253.595 951.54 254.395C952 255.185 952.62 255.895 953.38 256.505C954.15 257.125 955.02 257.675 956.01 258.185C956.98 258.695 957.99 259.215 959 259.735C960.01 260.255 961.01 260.825 961.99 261.455C962.97 262.075 963.84 262.815 964.61 263.665C965.38 264.515 965.99 265.505 966.46 266.665C966.94 267.815 967.17 269.175 967.17 270.755M922.77 253.185C922.77 251.635 922.46 250.315 921.82 249.245C921.2 248.175 920.15 247.405 918.67 246.925C918.21 246.775 917.68 246.685 917.11 246.625C916.53 246.565 915.77 246.535 914.83 246.535H910.81V259.905H915.46C916.71 259.905 917.8 259.735 918.72 259.405C919.63 259.055 920.39 258.585 921 257.995C921.61 257.395 922.06 256.675 922.35 255.865C922.63 255.045 922.78 254.155 922.78 253.195M929.94 281.075C929.94 281.245 929.91 281.375 929.85 281.505C929.79 281.625 929.68 281.735 929.49 281.815C929.31 281.885 929.05 281.955 928.72 281.995C928.39 282.045 927.95 282.065 927.4 282.065C926.92 282.065 926.52 282.045 926.22 281.995C925.92 281.955 925.67 281.895 925.48 281.805C925.3 281.705 925.16 281.585 925.05 281.415C924.95 281.255 924.86 281.045 924.79 280.805L921.5 271.445C921.11 270.375 920.7 269.405 920.29 268.515C919.87 267.625 919.38 266.865 918.81 266.215C918.24 265.565 917.56 265.075 916.79 264.705C916.02 264.355 915.08 264.175 913.99 264.175H910.8V281.085C910.8 281.255 910.76 281.385 910.68 281.515C910.59 281.635 910.46 281.735 910.3 281.805C910.12 281.875 909.88 281.935 909.58 281.995C909.26 282.045 908.89 282.065 908.43 282.065C907.97 282.065 907.59 282.045 907.28 281.995C906.98 281.945 906.73 281.875 906.55 281.805C906.36 281.725 906.24 281.635 906.16 281.515C906.08 281.395 906.04 281.255 906.04 281.085V244.355C906.04 243.555 906.23 243.005 906.61 242.675C906.99 242.365 907.4 242.205 907.82 242.205H915.43C916.34 242.205 917.08 242.225 917.69 242.275C918.28 242.325 918.82 242.385 919.3 242.445C920.69 242.715 921.9 243.135 922.98 243.695C924.04 244.275 924.92 244.995 925.64 245.875C926.37 246.755 926.9 247.755 927.27 248.895C927.63 250.025 927.81 251.285 927.81 252.645C927.81 254.005 927.65 255.155 927.33 256.215C927 257.255 926.54 258.195 925.93 258.995C925.31 259.805 924.59 260.505 923.74 261.105C922.89 261.695 921.95 262.195 920.88 262.605C921.48 262.895 922 263.255 922.49 263.685C922.97 264.125 923.42 264.655 923.83 265.265C924.25 265.885 924.65 266.595 925.01 267.385C925.38 268.185 925.75 269.075 926.11 270.085L929.32 278.835C929.58 279.565 929.74 280.085 929.81 280.385C929.89 280.675 929.93 280.905 929.93 281.075M881.63 261.945C881.63 259.715 881.45 257.615 881.09 255.695C880.73 253.765 880.14 252.095 879.3 250.675C878.46 249.265 877.35 248.155 875.95 247.365C874.54 246.575 872.82 246.175 870.76 246.175C868.7 246.175 866.96 246.605 865.56 247.465C864.16 248.325 863.02 249.465 862.15 250.885C861.27 252.315 860.65 253.985 860.27 255.895C859.89 257.795 859.7 259.795 859.7 261.905C859.7 264.235 859.88 266.375 860.23 268.325C860.58 270.295 861.17 271.975 862 273.395C862.82 274.805 863.94 275.915 865.33 276.695C866.72 277.485 868.47 277.875 870.56 277.875C872.65 277.875 874.4 277.445 875.81 276.595C877.23 275.735 878.37 274.585 879.24 273.115C880.1 271.665 880.72 269.965 881.09 268.055C881.46 266.135 881.64 264.115 881.64 261.965M886.68 261.575C886.68 264.785 886.33 267.675 885.65 270.245C884.96 272.815 883.94 275.005 882.59 276.815C881.23 278.615 879.53 280.005 877.48 280.975C875.43 281.945 873.04 282.425 870.31 282.425C867.58 282.425 865.29 281.985 863.33 281.095C861.35 280.205 859.74 278.905 858.46 277.215C857.17 275.515 856.22 273.415 855.6 270.905C854.97 268.395 854.65 265.505 854.65 262.245C854.65 258.985 854.99 256.265 855.67 253.715C856.36 251.165 857.38 248.995 858.75 247.205C860.11 245.425 861.82 244.045 863.87 243.075C865.91 242.105 868.3 241.625 871.04 241.625C873.78 241.625 875.97 242.065 877.93 242.945C879.89 243.825 881.52 245.095 882.82 246.785C884.12 248.465 885.1 250.545 885.73 253.045C886.36 255.525 886.69 258.375 886.69 261.575M841.3 244.465C841.3 244.855 841.28 245.195 841.24 245.475C841.2 245.755 841.15 245.985 841.06 246.165C840.97 246.335 840.88 246.475 840.76 246.545C840.64 246.625 840.5 246.665 840.36 246.665H830.3V281.085C830.3 281.255 830.26 281.385 830.19 281.515C830.12 281.635 829.99 281.735 829.81 281.805C829.63 281.875 829.39 281.935 829.08 281.995C828.77 282.045 828.39 282.065 827.93 282.065C827.47 282.065 827.11 282.045 826.79 281.995C826.47 281.945 826.22 281.875 826.04 281.805C825.85 281.725 825.73 281.635 825.66 281.515C825.58 281.385 825.55 281.255 825.55 281.085V246.665H815.49C815.34 246.665 815.22 246.625 815.09 246.545C814.96 246.475 814.87 246.335 814.8 246.165C814.74 245.985 814.67 245.765 814.62 245.475C814.57 245.195 814.56 244.855 814.56 244.465C814.56 244.075 814.58 243.735 814.62 243.445C814.67 243.155 814.74 242.915 814.8 242.735C814.87 242.545 814.97 242.415 815.09 242.335C815.21 242.255 815.34 242.205 815.49 242.205H840.38C840.52 242.205 840.65 242.245 840.78 242.335C840.9 242.405 841 242.545 841.08 242.735C841.17 242.915 841.22 243.155 841.26 243.445C841.3 243.735 841.32 244.085 841.32 244.465M795.96 261.945C795.96 259.715 795.78 257.615 795.42 255.695C795.06 253.765 794.46 252.095 793.62 250.675C792.78 249.265 791.66 248.155 790.27 247.365C788.86 246.575 787.13 246.175 785.07 246.175C783.01 246.175 781.27 246.605 779.87 247.465C778.47 248.325 777.33 249.465 776.46 250.885C775.58 252.315 774.95 253.985 774.57 255.895C774.19 257.795 774 259.795 774 261.905C774 264.235 774.18 266.375 774.53 268.325C774.88 270.295 775.46 271.975 776.3 273.395C777.12 274.805 778.24 275.915 779.62 276.695C781.01 277.485 782.76 277.875 784.86 277.875C786.96 277.875 788.7 277.445 790.11 276.595C791.53 275.735 792.67 274.585 793.54 273.115C794.4 271.665 795.02 269.965 795.39 268.055C795.76 266.135 795.94 264.115 795.94 261.965M801 261.575C801 264.785 800.66 267.675 799.98 270.245C799.29 272.815 798.27 275.005 796.92 276.815C795.56 278.615 793.86 280.005 791.81 280.975C789.76 281.945 787.37 282.425 784.64 282.425C781.91 282.425 779.62 281.985 777.66 281.095C775.69 280.205 774.07 278.905 772.79 277.215C771.51 275.515 770.55 273.415 769.93 270.905C769.3 268.395 768.99 265.505 768.99 262.245C768.99 258.985 769.33 256.265 770.01 253.715C770.7 251.165 771.72 248.995 773.09 247.205C774.45 245.425 776.16 244.045 778.21 243.075C780.25 242.105 782.64 241.625 785.38 241.625C788.12 241.625 790.31 242.065 792.27 242.945C794.23 243.825 795.86 245.095 797.15 246.785C798.45 248.465 799.43 250.545 800.06 253.045C800.69 255.525 801.02 258.375 801.02 261.575M749.67 281.075C749.67 281.245 749.63 281.395 749.56 281.505C749.49 281.625 749.35 281.725 749.16 281.795C748.97 281.865 748.72 281.925 748.43 281.985C748.14 282.035 747.75 282.055 747.28 282.055C746.84 282.055 746.46 282.035 746.14 281.985C745.83 281.935 745.59 281.865 745.4 281.795C745.22 281.715 745.09 281.625 745.02 281.505C744.95 281.385 744.91 281.245 744.91 281.075V246.525H744.85L732.24 281.235C732.19 281.385 732.11 281.495 732.01 281.605C731.91 281.705 731.75 281.795 731.57 281.865C731.37 281.935 731.14 281.995 730.87 282.025C730.6 282.055 730.28 282.065 729.91 282.065C729.52 282.065 729.19 282.045 728.92 281.995C728.64 281.955 728.41 281.905 728.23 281.825C728.04 281.755 727.9 281.665 727.8 281.565C727.71 281.455 727.63 281.355 727.59 281.235L715.52 246.525H715.49V281.075C715.49 281.245 715.45 281.395 715.38 281.505C715.31 281.625 715.18 281.725 714.98 281.795C714.79 281.865 714.53 281.925 714.23 281.985C713.93 282.035 713.54 282.055 713.07 282.055C712.6 282.055 712.23 282.035 711.93 281.985C711.63 281.935 711.38 281.865 711.2 281.795C711.02 281.715 710.9 281.625 710.83 281.505C710.76 281.385 710.73 281.245 710.73 281.075V244.595C710.73 243.725 710.93 243.115 711.34 242.755C711.76 242.385 712.22 242.195 712.72 242.195H715.65C716.24 242.195 716.77 242.255 717.22 242.385C717.67 242.495 718.06 242.695 718.4 242.955C718.74 243.225 719.02 243.565 719.24 243.965C719.46 244.375 719.66 244.855 719.83 245.415L730.08 274.135H730.22L740.86 245.495C741.07 244.885 741.29 244.365 741.54 243.935C741.79 243.505 742.05 243.165 742.34 242.905C742.63 242.645 742.96 242.465 743.3 242.355C743.66 242.235 744.07 242.185 744.54 242.185H747.61C747.88 242.185 748.16 242.225 748.41 242.325C748.66 242.415 748.87 242.565 749.05 242.755C749.23 242.955 749.37 243.195 749.48 243.505C749.59 243.795 749.65 244.165 749.65 244.595V281.075H749.67Z" fill="#2E2F66"/>
<path d="M965.38 273.075C965.51 272.375 965.58 271.595 965.58 270.745C965.58 270.045 965.53 269.385 965.43 268.815C965.33 268.235 965.19 267.715 965 267.255C964.81 266.775 964.57 266.305 964.29 265.865C964.04 265.455 963.75 265.075 963.43 264.725L962.35 263.685C961.95 263.345 961.54 263.045 961.14 262.795L959.71 261.935L955.27 259.605L953.75 258.725L952.38 257.745C951.92 257.375 951.49 256.975 951.13 256.555C950.75 256.115 950.42 255.655 950.14 255.185C949.54 254.145 949.23 252.915 949.23 251.545C949.23 251.095 949.27 250.645 949.35 250.185L949.7 248.845C949.86 248.405 950.06 247.995 950.29 247.625C950.52 247.245 950.81 246.885 951.12 246.555C951.45 246.215 951.82 245.915 952.22 245.655C952.6 245.415 953.02 245.195 953.47 245.015C954.44 244.635 955.5 244.445 956.69 244.445C957.28 244.445 957.87 244.495 958.47 244.585C959.06 244.675 959.62 244.815 960.12 244.995L961.42 245.505L962.61 246.085L963.5 246.615C963.5 246.135 963.52 245.775 963.44 245.315C963.12 244.935 962.32 244.585 961.88 244.355L960.03 243.695L958.97 243.445L957.93 243.295L956.89 243.255C956.18 243.255 955.51 243.305 954.9 243.405C954.28 243.495 953.67 243.655 953.08 243.855C952.53 244.035 952 244.285 951.5 244.575C951.02 244.845 950.57 245.175 950.17 245.545C949.79 245.895 949.43 246.305 949.13 246.745C948.81 247.205 948.53 247.705 948.31 248.235C948.09 248.765 947.91 249.355 947.8 249.975C947.69 250.595 947.63 251.275 947.63 252.045C947.63 252.815 947.68 253.435 947.78 254.015C947.88 254.595 948.03 255.125 948.22 255.585C948.42 256.085 948.65 256.555 948.91 256.975C949.17 257.405 949.46 257.795 949.77 258.145L950.83 259.195L952.03 260.095L953.42 260.965L957.82 263.275L959.32 264.135L960.66 265.085C961.16 265.485 961.57 265.875 961.91 266.255C962.28 266.705 962.61 267.155 962.89 267.645C963.19 268.155 963.42 268.745 963.58 269.385C963.73 270.005 963.81 270.655 963.81 271.325C963.81 271.915 963.76 272.495 963.65 273.085C963.56 273.655 963.39 274.195 963.19 274.715C962.98 275.225 962.71 275.715 962.42 276.155C962.11 276.605 961.75 277.025 961.35 277.375C960.96 277.735 960.52 278.045 960.07 278.305C959.63 278.565 959.13 278.795 958.6 278.975C958.08 279.155 957.54 279.305 956.98 279.385C956.41 279.485 955.82 279.535 955.24 279.535C954.49 279.535 953.77 279.485 953.09 279.385C952.4 279.285 951.74 279.125 951.12 278.915L949.57 278.325L948.19 277.665L946.75 276.805C946.75 278.225 946.72 278.185 947.79 278.945L948.58 279.385L949.54 279.815L950.69 280.225L952.02 280.575L953.44 280.795L955.01 280.865C955.82 280.865 956.57 280.815 957.25 280.705C957.95 280.595 958.64 280.425 959.29 280.195C959.93 279.975 960.53 279.695 961.08 279.375C961.63 279.055 962.14 278.685 962.61 278.245C963.07 277.815 963.49 277.335 963.85 276.825C964.22 276.285 964.54 275.705 964.8 275.105C965.06 274.485 965.26 273.805 965.39 273.105M968.77 270.745C968.77 271.745 968.68 272.725 968.51 273.665C968.34 274.595 968.07 275.495 967.72 276.325C967.35 277.165 966.93 277.935 966.45 278.625C965.95 279.335 965.38 279.985 964.75 280.565C964.13 281.135 963.44 281.645 962.68 282.085C961.96 282.515 961.16 282.885 960.32 283.175C959.49 283.465 958.62 283.675 957.73 283.815C956.83 283.955 955.9 284.025 954.99 284.025L953.1 283.925L951.31 283.645L949.74 283.235L948.31 282.735L947.11 282.195C946.32 281.755 945.92 281.525 945.21 281.005L944.52 280.365C944.33 280.145 944.16 279.895 944.03 279.635L943.74 278.855L943.57 277.935L943.52 276.915C943.58 275.925 943.54 274.765 944.17 273.925C944.34 273.685 944.54 273.495 944.73 273.375C945.08 273.125 945.57 272.995 946 272.995C946.37 272.995 946.74 273.095 947.15 273.285L949.67 274.845L950.77 275.375L952.1 275.885C952.52 276.025 952.99 276.145 953.5 276.215C954.01 276.285 954.58 276.335 955.2 276.335L956.42 276.245C956.81 276.185 957.18 276.085 957.51 275.975L958.44 275.545L959.18 275.005L959.77 274.345L960.21 273.525C960.33 273.225 960.43 272.885 960.49 272.535L960.59 271.335C960.59 270.875 960.55 270.475 960.47 270.145C960.4 269.835 960.27 269.525 960.12 269.255C959.95 268.945 959.73 268.645 959.5 268.385L958.7 267.615L957.6 266.845L956.36 266.125L951.8 263.725L950.26 262.765C949.72 262.415 949.21 262.025 948.75 261.625C948.26 261.195 947.8 260.745 947.38 260.275C946.94 259.775 946.53 259.225 946.19 258.655C945.84 258.085 945.54 257.465 945.27 256.795C944.99 256.115 944.78 255.365 944.64 254.575C944.51 253.775 944.44 252.925 944.44 252.055C944.44 251.185 944.52 250.275 944.68 249.415C944.83 248.575 945.07 247.765 945.38 247.015C945.7 246.245 946.09 245.545 946.52 244.925C946.95 244.305 947.47 243.715 948.04 243.195C948.63 242.665 949.25 242.215 949.92 241.825C950.57 241.445 951.29 241.115 952.06 240.855C952.81 240.595 953.59 240.395 954.41 240.275C955.24 240.145 956.08 240.075 956.9 240.075L958.24 240.145L959.59 240.335L960.86 240.625L962.08 241.005L963.21 241.465L964.23 241.985L965.03 242.495C966.97 244.115 967.28 246.915 966.31 249.235C966.2 249.475 966.04 249.675 965.9 249.835L965.86 249.875C965.65 250.085 965.39 250.245 965.12 250.335C964.87 250.425 964.62 250.475 964.38 250.475C964.05 250.475 963.7 250.385 963.33 250.215C962.25 249.615 961.29 248.985 960.18 248.425L959.09 248.015L957.99 247.735L956.71 247.645C955.92 247.645 955.26 247.755 954.73 247.955L953.96 248.355L953.42 248.785L953.01 249.315L952.71 249.925L952.5 250.715L952.44 251.555C952.44 252.375 952.6 253.065 952.91 253.605L953.54 254.485L954.37 255.275L955.47 256.065L956.73 256.795L961.29 259.195L962.84 260.135C963.41 260.505 963.94 260.885 964.4 261.275C964.89 261.695 965.36 262.135 965.78 262.605C966.23 263.105 966.64 263.645 966.99 264.225C967.33 264.775 967.64 265.395 967.92 266.085C968.21 266.775 968.42 267.525 968.55 268.295C968.68 269.075 968.75 269.905 968.75 270.775M924.08 250.665C924.27 251.465 924.37 252.315 924.37 253.185C924.37 253.715 924.33 254.265 924.24 254.825C924.15 255.375 924.02 255.895 923.85 256.385C923.66 256.905 923.42 257.405 923.14 257.845C922.86 258.305 922.51 258.735 922.1 259.135C921.72 259.515 921.28 259.855 920.81 260.145C920.35 260.435 919.84 260.685 919.28 260.895C918.71 261.095 918.11 261.255 917.46 261.355C916.83 261.455 916.16 261.505 915.46 261.505H909.21V244.935C912.17 244.935 915.31 244.765 918.23 245.185L919.15 245.415C920.06 245.705 920.85 246.095 921.51 246.585C922.21 247.105 922.78 247.735 923.21 248.455C923.6 249.115 923.89 249.865 924.09 250.675M921.17 253.185C921.17 252.505 921.11 251.915 920.99 251.405C920.87 250.915 920.69 250.455 920.46 250.055C920.25 249.705 919.97 249.395 919.63 249.145C919.25 248.875 918.77 248.625 918.2 248.445C916.41 247.985 914.25 248.115 912.41 248.125V258.295H915.47C916.02 258.295 916.52 258.255 916.99 258.185C917.43 258.125 917.84 258.015 918.19 257.895L919.15 257.425L919.9 256.845L920.46 256.155L920.87 255.325L921.12 254.315L921.2 253.175L921.17 253.185ZM928.01 280.455L928.18 280.435C927.11 276.615 924.98 270.825 923.06 267.045L922.52 266.165L921.97 265.435L921.41 264.855L920.83 264.405L920.17 264.025L916.9 262.405L920.31 261.105L921.65 260.505L922.82 259.795L923.81 258.985L924.65 258.035C924.9 257.705 925.12 257.355 925.3 256.985L925.79 255.745C925.92 255.305 926.03 254.825 926.09 254.335L926.19 252.655C926.19 252.035 926.15 251.445 926.07 250.905C926 250.375 925.88 249.855 925.73 249.375C925.58 248.895 925.39 248.445 925.18 248.045C924.97 247.635 924.7 247.255 924.4 246.895C924.11 246.525 923.78 246.205 923.42 245.905C923.05 245.605 922.65 245.335 922.2 245.095C921.76 244.865 921.26 244.645 920.74 244.475C920.23 244.295 919.65 244.145 919.04 244.025C916.8 243.755 908.02 243.645 907.67 243.865L907.63 244.355V280.435C908.14 280.495 908.69 280.495 909.19 280.435V262.585H913.97C914.58 262.585 915.19 262.645 915.78 262.745C916.38 262.855 916.93 263.035 917.43 263.265C917.92 263.495 918.38 263.775 918.8 264.085C919.23 264.405 919.63 264.775 919.98 265.175C920.33 265.575 920.65 265.985 920.92 266.415C921.22 266.875 921.49 267.355 921.71 267.845L922.97 270.895L926.31 280.405C926.81 280.505 927.47 280.475 927.98 280.465M931.53 281.205C931.5 281.575 931.46 281.805 931.31 282.155C931.19 282.425 931.01 282.665 930.81 282.855L930.77 282.885C930.58 283.055 930.36 283.185 930.11 283.295C928.44 283.945 925.66 283.875 924.18 282.825C922.2 280.515 920.99 274.795 920.01 271.995L918.85 269.195L918.27 268.135L917.62 267.275L916.93 266.635L916.11 266.145L915.21 265.875L913.99 265.775H912.4C912.4 268.975 912.93 279.345 912.32 281.725C912.25 281.975 912.15 282.215 911.99 282.435C911.85 282.635 911.68 282.805 911.49 282.945C909.92 284.045 906.96 283.845 905.34 282.945C905.12 282.785 904.94 282.585 904.8 282.355C904.69 282.175 904.58 281.955 904.52 281.705C903.48 277.885 904.44 250.545 904.44 244.355C904.44 243.805 904.52 243.285 904.68 242.835C904.87 242.275 905.17 241.815 905.56 241.475L905.62 241.435C905.93 241.185 906.27 240.985 906.62 240.845L906.66 240.825C907.04 240.685 907.44 240.605 907.83 240.605C911.49 240.605 915.89 240.345 919.63 240.875C920.38 241.015 921.1 241.215 921.79 241.455C922.47 241.685 923.12 241.965 923.73 242.285C924.36 242.625 924.94 243.015 925.46 243.435C925.98 243.865 926.47 244.335 926.89 244.865C927.32 245.375 927.7 245.945 928.03 246.545C928.35 247.135 928.62 247.775 928.82 248.425C929.02 249.065 929.18 249.745 929.28 250.455C929.38 251.175 929.43 251.915 929.43 252.655C929.43 253.355 929.38 254.055 929.29 254.745C929.2 255.425 929.06 256.075 928.88 256.675C928.69 257.285 928.46 257.855 928.18 258.415C927.91 258.965 927.58 259.485 927.23 259.955C926.88 260.415 926.48 260.865 926.06 261.275C925.64 261.675 925.18 262.065 924.69 262.405L923.97 262.865L924.44 263.385L925.18 264.365L925.87 265.495L926.49 266.715C927.39 268.785 931.72 278.785 931.56 281.185M883.08 258.555C883.17 259.655 883.22 260.795 883.22 261.945C883.22 262.995 883.17 264.085 883.07 265.205C882.98 266.295 882.83 267.345 882.64 268.325C882.44 269.365 882.17 270.355 881.84 271.265C881.5 272.215 881.07 273.095 880.6 273.905C880.1 274.745 879.52 275.505 878.86 276.175C878.2 276.845 877.45 277.435 876.62 277.935C875.78 278.445 874.83 278.835 873.8 279.085C872.79 279.335 871.69 279.455 870.54 279.455C869.39 279.455 868.31 279.335 867.31 279.115C866.29 278.885 865.36 278.525 864.53 278.055C863.72 277.605 862.97 277.045 862.31 276.395C861.65 275.735 861.07 274.995 860.6 274.175C860.14 273.375 859.74 272.495 859.41 271.565C859.09 270.655 858.83 269.655 858.64 268.575C858.45 267.555 858.31 266.475 858.22 265.355C858.13 264.235 858.08 263.065 858.08 261.875C858.08 260.835 858.14 259.745 858.24 258.645C858.34 257.575 858.49 256.535 858.68 255.565C858.89 254.535 859.17 253.555 859.51 252.625C859.86 251.685 860.28 250.815 860.77 250.025C861.28 249.215 861.86 248.465 862.5 247.815C863.16 247.155 863.91 246.565 864.71 246.075C865.55 245.575 866.49 245.175 867.5 244.925C868.5 244.675 869.58 244.545 870.73 244.545C871.88 244.545 872.93 244.665 873.92 244.885C874.93 245.115 875.86 245.485 876.7 245.955C877.53 246.425 878.27 246.995 878.92 247.625C879.58 248.285 880.16 249.025 880.64 249.835C881.12 250.635 881.52 251.515 881.85 252.445C882.17 253.365 882.44 254.345 882.62 255.385C882.82 256.425 882.96 257.485 883.05 258.535M880.03 261.945C880.03 260.855 879.98 259.805 879.9 258.825C879.81 257.815 879.69 256.855 879.52 255.985C879.36 255.095 879.14 254.275 878.87 253.525C878.6 252.785 878.28 252.095 877.92 251.475C877.58 250.885 877.16 250.365 876.71 249.915C876.25 249.465 875.73 249.065 875.16 248.735C874.6 248.415 873.95 248.175 873.24 248.005C872.51 247.845 871.68 247.755 870.75 247.755C869.82 247.755 869 247.845 868.28 248.025C867.58 248.195 866.94 248.465 866.38 248.805C865.79 249.175 865.25 249.595 864.77 250.075C864.29 250.555 863.87 251.105 863.5 251.705C863.12 252.345 862.77 253.035 862.5 253.765C862.23 254.505 861.99 255.315 861.82 256.195C861.64 257.115 861.51 258.045 861.42 258.965C861.34 259.855 861.29 260.835 861.29 261.895C861.29 263.035 861.33 264.115 861.42 265.115C861.5 266.135 861.63 267.115 861.79 268.045C861.94 268.925 862.16 269.765 862.43 270.535C862.69 271.285 863 271.975 863.36 272.585C863.7 273.175 864.11 273.685 864.55 274.135C865 274.575 865.52 274.965 866.1 275.295C866.65 275.615 867.3 275.865 868.02 276.015C868.77 276.175 869.61 276.265 870.55 276.265C871.49 276.265 872.32 276.175 873.05 275.995C873.77 275.815 874.42 275.555 874.98 275.215C875.57 274.865 876.11 274.435 876.59 273.945C877.07 273.465 877.49 272.915 877.86 272.285C878.24 271.635 878.58 270.925 878.85 270.185C879.12 269.425 879.36 268.605 879.52 267.745C879.7 266.815 879.83 265.885 879.91 264.945C879.99 264.045 880.03 263.045 880.03 261.955M884.84 265.975C885 264.625 885.08 263.145 885.08 261.575C885.08 260.005 885 258.545 884.86 257.225C884.71 255.885 884.48 254.615 884.18 253.445C883.89 252.285 883.52 251.225 883.08 250.295C882.65 249.365 882.13 248.515 881.55 247.765C880.98 247.035 880.34 246.375 879.64 245.825C878.92 245.265 878.12 244.785 877.27 244.405C876.41 244.025 875.47 243.725 874.43 243.535C873.4 243.335 872.26 243.235 871.03 243.235C869.8 243.235 868.57 243.345 867.49 243.565C866.42 243.785 865.43 244.105 864.54 244.525C863.63 244.955 862.79 245.485 862.04 246.095C861.29 246.705 860.6 247.405 860 248.185C859.38 248.995 858.84 249.885 858.38 250.865C857.92 251.835 857.53 252.935 857.2 254.145C856.88 255.335 856.63 256.625 856.48 257.955C856.32 259.295 856.24 260.725 856.24 262.255C856.24 263.865 856.32 265.345 856.46 266.705C856.6 268.065 856.83 269.345 857.13 270.535C857.42 271.705 857.78 272.775 858.22 273.725C858.65 274.675 859.15 275.525 859.72 276.265C860.29 277.015 860.92 277.675 861.62 278.225C862.32 278.785 863.11 279.265 863.99 279.655C864.86 280.045 865.82 280.345 866.85 280.535C867.89 280.735 869.06 280.835 870.33 280.835C871.6 280.835 872.78 280.725 873.86 280.505C874.92 280.295 875.91 279.965 876.82 279.535C877.72 279.105 878.55 278.575 879.3 277.965C880.06 277.355 880.74 276.645 881.34 275.845C881.93 275.055 882.47 274.145 882.94 273.135C883.41 272.145 883.81 271.035 884.13 269.825C884.45 268.615 884.7 267.315 884.85 265.955M888.27 261.575C888.27 263.215 888.18 264.805 888 266.335C887.82 267.855 887.55 269.305 887.19 270.655C886.83 272.015 886.37 273.295 885.81 274.495C885.28 275.665 884.62 276.765 883.86 277.775C883.11 278.775 882.25 279.675 881.29 280.445C880.35 281.215 879.3 281.885 878.17 282.425C877.03 282.965 875.79 283.375 874.47 283.635C873.15 283.905 871.76 284.035 870.31 284.035C868.86 284.035 867.52 283.915 866.24 283.665C864.96 283.425 863.76 283.055 862.67 282.555C861.58 282.065 860.56 281.445 859.65 280.715C858.72 279.985 857.9 279.125 857.18 278.185C856.47 277.245 855.84 276.185 855.32 275.035C854.81 273.895 854.38 272.645 854.04 271.305C853.71 269.985 853.46 268.555 853.29 267.035C853.12 265.505 853.04 263.905 853.04 262.255C853.04 260.605 853.13 259.085 853.31 257.585C853.49 256.085 853.76 254.655 854.12 253.325C854.48 251.985 854.94 250.715 855.5 249.525C856.06 248.335 856.72 247.245 857.47 246.265C858.23 245.275 859.09 244.385 860.05 243.625C860.99 242.865 862.05 242.205 863.19 241.665C864.33 241.125 865.57 240.715 866.87 240.455C868.19 240.185 869.58 240.055 871.04 240.055C872.5 240.055 873.78 240.175 875.04 240.425C876.3 240.665 877.49 241.035 878.58 241.525C879.68 242.015 880.7 242.625 881.61 243.335C882.53 244.065 883.36 244.905 884.08 245.835C884.8 246.765 885.43 247.815 885.97 248.955C886.5 250.095 886.94 251.345 887.28 252.665C887.61 253.965 887.87 255.375 888.03 256.885C888.19 258.395 888.28 259.965 888.28 261.585M839.69 244.855L839.67 243.805H816.17C816.13 244.215 816.12 244.655 816.17 245.065H827.15V280.425C827.66 280.485 828.2 280.485 828.71 280.425V245.055H839.68L839.7 244.845L839.69 244.855ZM842.89 244.505C842.85 245.775 842.85 246.245 842.19 247.345C842.04 247.545 841.86 247.715 841.65 247.855C841.26 248.115 840.83 248.255 840.37 248.255H831.91C831.91 252.825 832.9 280.125 831.55 282.345C831.4 282.585 831.21 282.785 831.01 282.935C829.21 283.945 826.65 283.935 824.85 282.935C824.61 282.755 824.42 282.535 824.28 282.285C822.84 278.825 823.96 253.915 823.96 248.255H815.5C815.02 248.255 814.61 248.115 814.21 247.855C813.99 247.705 813.81 247.525 813.66 247.335C812.63 245.865 812.76 243.015 813.66 241.505C813.82 241.295 814.01 241.105 814.29 240.945L814.83 240.675C821.46 239.805 833.19 240.595 840.38 240.595C840.84 240.595 841.27 240.735 841.66 240.995C841.87 241.135 842.05 241.315 842.19 241.495C842.84 242.595 842.9 243.235 842.9 244.495M797.41 258.575C797.5 259.665 797.55 260.805 797.55 261.945C797.55 262.995 797.5 264.085 797.4 265.205C797.31 266.295 797.16 267.335 796.97 268.325C796.77 269.375 796.5 270.365 796.16 271.275C795.82 272.205 795.4 273.085 794.92 273.895C794.42 274.735 793.83 275.495 793.17 276.165C792.51 276.835 791.76 277.425 790.94 277.915C790.1 278.425 789.15 278.815 788.12 279.065C787.11 279.315 786.01 279.435 784.86 279.435C783.71 279.435 782.63 279.315 781.63 279.095C780.61 278.865 779.68 278.505 778.85 278.035C778.03 277.585 777.29 277.015 776.63 276.365C775.97 275.705 775.39 274.965 774.92 274.155C774.46 273.365 774.06 272.495 773.73 271.545C773.4 270.605 773.14 269.605 772.96 268.555C772.78 267.495 772.63 266.415 772.55 265.345C772.46 264.225 772.4 263.055 772.4 261.865C772.4 260.825 772.46 259.735 772.56 258.635C772.66 257.565 772.81 256.525 773.01 255.555C773.21 254.535 773.49 253.555 773.84 252.615C774.19 251.675 774.61 250.805 775.1 250.015C775.59 249.205 776.18 248.465 776.84 247.795C777.5 247.135 778.24 246.555 779.04 246.055C779.87 245.545 780.82 245.155 781.84 244.905C782.84 244.655 783.92 244.525 785.06 244.525C786.2 244.525 787.26 244.645 788.25 244.865C789.27 245.095 790.21 245.465 791.03 245.925C791.85 246.395 792.59 246.955 793.25 247.605C793.91 248.255 794.48 248.995 794.97 249.815C795.45 250.635 795.86 251.515 796.19 252.425C796.51 253.325 796.78 254.305 796.97 255.365C797.16 256.425 797.31 257.485 797.4 258.535M794.36 261.945C794.36 260.865 794.31 259.825 794.23 258.845C794.15 257.815 794.02 256.855 793.86 255.985C793.7 255.125 793.48 254.295 793.2 253.525C792.93 252.775 792.61 252.085 792.26 251.485C791.91 250.895 791.5 250.375 791.04 249.915C790.59 249.475 790.07 249.075 789.49 248.745C788.92 248.425 788.27 248.175 787.56 248.005C786.83 247.845 786 247.755 785.07 247.755C784.14 247.755 783.33 247.845 782.61 248.025C781.91 248.195 781.27 248.465 780.71 248.805C780.12 249.165 779.57 249.595 779.1 250.065C778.63 250.545 778.2 251.095 777.83 251.695C777.44 252.335 777.1 253.025 776.83 253.755C776.56 254.485 776.32 255.305 776.15 256.185C775.97 257.105 775.83 258.035 775.74 258.955C775.66 259.845 775.61 260.825 775.61 261.885C775.61 263.025 775.65 264.105 775.74 265.105C775.82 266.165 775.95 267.145 776.11 268.025C776.28 268.935 776.49 269.775 776.75 270.525C777 271.255 777.32 271.945 777.68 272.575C778.02 273.165 778.42 273.685 778.87 274.125C779.32 274.565 779.84 274.965 780.42 275.285C780.97 275.605 781.62 275.855 782.34 276.005C783.09 276.165 783.93 276.255 784.87 276.255C785.81 276.255 786.64 276.165 787.37 275.985C788.08 275.815 788.73 275.545 789.29 275.205C789.88 274.855 790.43 274.425 790.91 273.935C791.39 273.455 791.81 272.895 792.18 272.275C792.56 271.635 792.89 270.925 793.17 270.175C793.45 269.405 793.68 268.585 793.84 267.725C794.01 266.795 794.15 265.865 794.23 264.925C794.31 264.025 794.35 263.025 794.35 261.935M799.16 265.955C799.32 264.605 799.4 263.135 799.4 261.575C799.4 260.015 799.33 258.555 799.18 257.235C799.03 255.895 798.8 254.615 798.5 253.435C798.21 252.295 797.84 251.245 797.4 250.285C796.98 249.365 796.46 248.515 795.87 247.765C795.31 247.035 794.67 246.375 793.96 245.815C793.24 245.245 792.45 244.775 791.6 244.395C790.74 244.015 789.79 243.715 788.76 243.525C787.73 243.325 786.59 243.225 785.35 243.225C784.11 243.225 782.89 243.335 781.82 243.555C780.76 243.765 779.77 244.095 778.86 244.525C777.95 244.945 777.11 245.475 776.36 246.085C775.6 246.695 774.91 247.395 774.32 248.175C773.7 248.985 773.16 249.875 772.7 250.855C772.24 251.835 771.84 252.935 771.51 254.135C770.87 256.535 770.55 259.245 770.55 262.245C770.55 263.855 770.63 265.345 770.77 266.695C770.92 268.055 771.14 269.335 771.44 270.525C771.73 271.695 772.09 272.765 772.52 273.715C772.95 274.665 773.45 275.515 774.02 276.255C774.58 276.995 775.22 277.655 775.92 278.215C776.61 278.775 777.4 279.255 778.28 279.645C779.15 280.035 780.11 280.335 781.14 280.525C782.18 280.725 783.35 280.825 784.61 280.825C785.87 280.825 787.06 280.715 788.14 280.495C789.2 280.285 790.19 279.955 791.1 279.525C792.01 279.105 792.85 278.575 793.6 277.965C794.35 277.355 795.03 276.635 795.62 275.855C796.23 275.035 796.77 274.125 797.23 273.145C797.69 272.135 798.09 271.025 798.41 269.825C798.73 268.605 798.98 267.305 799.13 265.945M802.6 261.575C802.6 263.205 802.51 264.795 802.33 266.315C802.15 267.845 801.88 269.295 801.52 270.655C801.15 272.025 800.69 273.315 800.14 274.485C799.57 275.695 798.92 276.795 798.19 277.765C797.42 278.775 796.56 279.675 795.63 280.435C794.68 281.205 793.63 281.865 792.49 282.405C791.36 282.945 790.12 283.355 788.79 283.615C787.47 283.885 786.08 284.015 784.63 284.015C783.18 284.015 781.85 283.895 780.57 283.645C779.29 283.405 778.09 283.035 776.99 282.535C775.9 282.045 774.88 281.415 773.96 280.685C773.04 279.965 772.22 279.115 771.5 278.155C770.79 277.215 770.16 276.155 769.64 275.005C769.13 273.865 768.7 272.615 768.36 271.275C768.03 269.955 767.78 268.525 767.61 267.005C767.45 265.475 767.36 263.875 767.36 262.225C767.36 258.975 767.72 255.985 768.43 253.295C768.79 251.945 769.26 250.675 769.82 249.485C770.38 248.295 771.04 247.205 771.79 246.225C772.54 245.245 773.41 244.345 774.36 243.585C775.3 242.825 776.35 242.155 777.49 241.625C778.62 241.085 779.86 240.675 781.19 240.405C782.51 240.145 783.9 240.005 785.35 240.005C786.8 240.005 788.09 240.125 789.35 240.375C790.61 240.615 791.8 240.985 792.89 241.475C794 241.965 795.01 242.585 795.92 243.285C796.82 243.995 797.65 244.835 798.38 245.785C799.1 246.705 799.73 247.755 800.28 248.925C800.81 250.055 801.25 251.295 801.58 252.625C801.91 253.915 802.17 255.335 802.33 256.845C802.5 258.345 802.59 259.925 802.59 261.545M747.8 280.455L748.07 280.425C748.07 268.495 751.54 231.765 742.93 244.735C742.72 245.095 742.53 245.525 742.38 246.005C739.1 255.825 734.94 265.965 731.34 275.745H728.97C727.26 270.975 719.66 246.565 717.44 244.225L717.15 244.035C716.03 243.655 713.64 243.705 712.61 243.805C712.26 244.045 712.38 244.145 712.33 244.595V280.425C712.84 280.485 713.39 280.475 713.89 280.425V244.925H716.65L728.98 280.385C729.53 280.485 730.29 280.495 730.84 280.405L743.74 244.915H746.51V280.415C746.95 280.465 747.36 280.455 747.8 280.445M751.27 281.075C751.27 281.525 751.16 281.965 750.91 282.345C750.76 282.585 750.57 282.785 750.37 282.935C748.66 283.965 745.93 283.905 744.21 282.935C744.01 282.785 743.84 282.605 743.7 282.395C743.55 282.175 743.46 281.945 743.4 281.715C742.43 277.245 743.31 261.125 743.31 255.425C742.5 257.645 738.19 288.805 727.18 283.085C726.99 282.975 726.8 282.835 726.63 282.655C724.44 280.125 718.68 260.465 717.08 255.885V281.075C717.08 281.545 716.95 281.995 716.71 282.365C716.56 282.595 716.38 282.785 716.18 282.935C714.47 283.965 711.72 283.915 710 282.935C709.75 282.745 709.57 282.535 709.43 282.285C707.89 278.175 709.12 251.075 709.12 244.595C709.12 243.995 709.2 243.455 709.36 242.965C709.56 242.395 709.86 241.925 710.27 241.555C710.61 241.255 710.99 241.025 711.39 240.865C711.83 240.685 712.27 240.595 712.71 240.595H715.64L716.66 240.655L717.6 240.835L718.53 241.175C719.41 241.715 719.34 241.655 720.07 242.385L720.63 243.205L721.01 244.015L730.18 269.675L739.37 244.945C739.61 244.235 739.88 243.625 740.16 243.135L740.66 242.395L741.26 241.735L741.99 241.195L742.81 240.845L743.67 240.655L744.53 240.595H747.6L748.27 240.655L748.95 240.835L749.63 241.165C750.26 241.685 750.19 241.615 750.66 242.275L750.97 242.915L751.19 243.725L751.26 244.585V281.055L751.27 281.075Z" fill="#2E2F66"/>
</svg>
